<?xml version="1.0" encoding="utf-8"?>
<!-- Generator: Adobe Illustrator 21.0.1, SVG Export Plug-In . SVG Version: 6.00 Build 0)  -->
<svg version="1.1" xmlns="http://www.w3.org/2000/svg" xmlns:xlink="http://www.w3.org/1999/xlink" x="0px" y="0px"
	 viewBox="0 0 210 188" style="enable-background:new 0 0 210 188;" xml:space="preserve">
<style type="text/css">
	.st0{display:none;}
	.st1{display:inline;fill:#956A42;stroke:#000000;stroke-miterlimit:10;}
	.st2{display:inline;fill:#476681;stroke:#000000;stroke-miterlimit:10;}
	.st3{display:inline;}
	.st4{fill:none;stroke:#000000;stroke-miterlimit:10;}
	.st5{fill:#002E20;stroke:#000000;stroke-miterlimit:10;}
	.st6{fill:#FBB89A;stroke:#000000;stroke-miterlimit:10;}
	.st7{display:inline;fill:#6A8377;stroke:#000000;stroke-miterlimit:10;}
	.st8{display:inline;fill:none;stroke:#000000;stroke-miterlimit:10;}
	.st9{display:inline;fill:#C26A42;stroke:#000000;stroke-miterlimit:10;}
	.st10{display:inline;fill:#002E20;stroke:#000000;stroke-miterlimit:10;}
	.st11{display:inline;fill:#FBB89A;stroke:#000000;stroke-miterlimit:10;}
	.st12{display:inline;fill:#151A16;stroke:#000000;stroke-miterlimit:10;}
	.st13{display:inline;fill:#472A3B;stroke:#000000;stroke-miterlimit:10;}
	.st14{display:none;fill:#C0C0AC;stroke:#000000;stroke-miterlimit:10;}
	.st15{fill:#6A8377;stroke:#000000;stroke-miterlimit:10;}
	.st16{display:none;fill:#A9A6A7;stroke:#000000;stroke-miterlimit:10;}
	.st17{fill:#564338;stroke:#000000;stroke-miterlimit:10;}
	.st18{display:none;fill:#FFFFFF;stroke:#000000;stroke-miterlimit:10;}
	.st19{display:none;fill:#E8C0A9;stroke:#000000;stroke-miterlimit:10;}
	.st20{display:none;fill:#564338;stroke:#000000;stroke-miterlimit:10;}
	.st21{fill:#567286;stroke:#000000;stroke-miterlimit:10;}
	.st22{fill:#684F42;stroke:#000000;stroke-miterlimit:10;}
	.st23{display:inline;fill:#684F42;stroke:#000000;stroke-miterlimit:10;}
	.st24{display:inline;fill:#954836;stroke:#000000;stroke-miterlimit:10;}
</style>
<g id="Слой_6" class="st0">
	<path class="st1" d="M115.6,110.5l149.7-2.4l27-0.4c0,0,6-2.7,8.5,4.6c2.5,7.3-43,43.3-43,43.3s-263-9.5-265.5-10s-19,0-19,0v-11.2
		c0,0-5-2.8,2.5-5.3s53.4-16.8,53.4-16.8"/>
	<path class="st1" d="M-26.7,145.5v52c0,0,4,5,12,0s2-52.2,2-52.2l2.2-6.8"/>
	<path class="st1" d="M29.1,147.1v25.4c0,0-2.1,6.5,4.8,5.5s4.7-8.9,4.7-8.9v-19.6l0.6-2.4H29.1z"/>
	<path class="st1" d="M238.8,155.5c0,0-1.5,43,0,48s14.5,4.5,14.5,4.5l11.5-12v-46.2C264.8,149.8,260.8,154.5,238.8,155.5z"/>
	<path class="st1" d="M300.8,112.2v43.3c0,0-3,10.7-8.5,7.1c-5.5-3.6-4-33.5-4-33.5S303.3,116.1,300.8,112.2z"/>
</g>
<g id="Слой_2" class="st0">
	<path class="st2" d="M220.7,114l6-4.3h11c0,0,15.7-23.3,1.7-27.2s-21-2.7-21-2.7l-8.8,2.7c0,0-19.8,13.2-1.3,20.2
		S220.7,114,220.7,114z"/>
	<g id="Слой_5" class="st3">
		<path class="st4" d="M206.4-37.1h-15c0,0-3.9,0.2-1.5,2.5c2.3,2.3,0.8,1.6,0.8,1.6"/>
		<path class="st4" d="M155.9-0.6c0,0,7.7,2.5,14.2,1.7"/>
		<path class="st4" d="M154.4-4.9"/>
		<path class="st5" d="M154.4-4.9c0,0-16.1-1.5-24.4,14.4s-10.7,47.9-7.7,71s4,40.5,4,40.5s3.5,13.3,25.7,10.7c0,0,28.8,7.7,46.5-3
			c17.8-10.7,22.1-14.7,22.1-14.7s3.3-20.7-5.7-23.7s-10.7-36.7-8.2-53.3s12.8-21,4.2-30S155.9-4.5,155.9-4.5L154.4-4.9z"/>
	</g>
	<g id="Слой_3" class="st3">
		<path class="st4" d="M195.4-36.1c0,0-2.7-0.5-3,1.5c-0.3,2-1.7,1.6-1.7,1.6l0.8-4.9l10.5-0.9l4.4-0.4v5.7h-4.8L195.4-36.1z"/>
		<path class="st6" d="M202.1-37c1,0.2,5,1.3,5.7,6.1s-2.8,12.3-2.8,12.3s3,1.2,1.5,4.2s-4.3,2.5-4.3,2.5s0.8,4.2-1,5.4
			c-1.8,1.2-3.5,3.7-3.5,3.7s-7.8,2.7-8.3,2.7s-8.7,2.8-10.8,8.5c-2.2,5.7-28.8,4.5-26.2-4s2.7-6,2.7-6l2-29.1c0,0,7.5-30.4,25-25.3
			S202.1-37,202.1-37z"/>
	</g>
	<g id="Слой_4" class="st3">
	</g>
	<path class="st7" d="M175.4-60.5c-1,0-5.3-1.5-11.3,1.5s-8.5,2.3-11.7,12.5c-3.2,10.2-1.3,34.5-1.3,34.5l2.5-10.5l1.7,15.8l3.2-12
		c0,0,0.8,14.5,0.8,13.8s3.7-12.3,3.7-12.3l2.1,13l4.3-13L173.6-3l1.8-7.2c0,0-0.8,6.9,0,6.4c0.8-0.5,2.8-6.4,2.8-6.4l0.8,7.2
		l3-14.2l2,12.3l2.5-9.6l2.3,7.8v-9.5l1.3,9.5l3.7-8.8l1.5,8.8l3.5-10.5v6.9l1.5-17.6c0,0-1.5,5-3.8,0.3c-2.3-4.7-1.2-16,1.8-11.8
		s2,3,2,3l0.2-8.5l1.5,6.2c0,0,4-20.8-6.8-22.2S175.4-60.5,175.4-60.5z"/>
	<path class="st7" d="M160.1-44.8l-1,9l4.3-9c0,0-0.3,21.7,0,20.5c0.3-1.2,5.5-13.3,5.5-13.3v10.2c0,0,5-12.8,4.8-11.8
		s1.2,9.6,1.2,9.6l1.8-7.1l1.4,15.5l3-11v7.7l2.3-7.6"/>
	<line class="st8" x1="200.2" y1="-6" x2="202" y2="-4.9"/>
	<line class="st8" x1="202.2" y1="-9" x2="204.5" y2="-7.7"/>
	<line class="st8" x1="205.2" y1="-12.9" x2="206.4" y2="-11.2"/>
	<line class="st8" x1="202.2" y1="-16.5" x2="204.5" y2="-15.5"/>
	<line class="st8" x1="204.5" y1="-22.5" x2="207.8" y2="-21.3"/>
	<line class="st8" x1="206.8" y1="-16" x2="209.5" y2="-15.5"/>
	<polygon class="st9" points="299.4,34.4 303.7,30 303.7,35.2 307.3,32.6 311.8,35.2 311.8,38.5 315.3,38.5 315.3,43.5 306.7,54.2 
		292.3,49 	"/>
	<polyline class="st10" points="211,7 247.3,41 287,45.8 288.3,55.8 245.7,55.8 200.2,36 	"/>
	<path class="st11" d="M285.7,46.1c0,0,2.3-3.5,6.4-6.5s4.1-4.4,4.1-4.4s0.4-5.5,2.1-3.8c1.8,1.7,1,5.6,1,5.6s-3.8,5.6-3.8,6.5
		s0.8,3.8,5.9,4.4s16.4-6.8,20.9-6.1s0,3.1,0,3.1l-3.4,2.4c0,0,3,2.6-0.1,4s0.9,3.9-3.1,4s-1.6,1-4.3,2.6s-10.5,4.8-13.8,3
		s-11.1-5-11.1-5L285.7,46.1z"/>
	<path class="st12" d="M155.9,162.6v15.5c0,0,13,9.9,26.7-1.4l4.4-7.6C187,169.1,193.2,153.5,155.9,162.6z"/>
	<path class="st12" d="M210.3,162.6c-6.7-1.6-5,16.3-5,16.3s5.3,9.5,26.3,2.8c0,0,4.3,0.5,4-10.8
		C235.3,159.7,210.3,162.6,210.3,162.6z"/>
	<path class="st2" d="M155.9,151.8l-3.9,21.4c0,0-2.7,3.8,10.9,0c13.7-3.8,0-2.3,0-2.3s10.2,4.8,16.9,4c6.7-0.9,5.1-8.5,5.1-8.5
		l0.2-13.5L155.9,151.8z"/>
	<path class="st2" d="M205.1,153.6L202,175c0,0,2.5,5.2,11.6,3.1c9.1-2.1,16.8,0.8,16.8,0.8s8,0.1,6.7-3.9c-1.3-4.1-4-19.2-4-19.2
		L205.1,153.6z"/>
</g>
<g id="Слой_8" class="st0">
	<path class="st13" d="M375.3,184.1c0,0-99-81.3-100.5-91.9s4.7-16.4,10.8-13c6.2,3.3,9,9.7,9,9.7s-5.3,4.3-6.3,1.4
		c-1-2.8-3.5-7.8-6.5-4.8s-2,7.2,0,9.1c2,1.9,96.5,84.3,96.5,84.3L375.3,184.1z"/>
</g>
<g id="Слой_1">
	<path class="st14" d="M57.3-15c0,0-14-3-14,13s14,13.5,14,13.5s14-2,14-10.5S57.3-15,57.3-15z"/>
	<path class="st15" d="M35.2,100.5c0,0-6.9,8.8-6.1,14.8c0,0-1.2,9.5,6.1,12.8s17,0.5,30.3,4.8s25.3,3.3,33.5,0s16.5-22.3,16.5-22.3
		l3.5-0.5c0,0,6.3-17.1-3.8-19.7c-10-2.6-24.1-0.9-24.1-0.9L35.2,100.5z"/>
	<path class="st16" d="M72.8-45.3c0,0-23-3.2-27.2,13.5s0.7,19.9,0.7,19.9s0.2-2,4.1-2.6s4-2.5,7.9,0.2s9.7,7.9,10.2,8.5
		C69-5.2,71.3,1,71.3,1s3,4.2,9.7-1s17.8-25.5,8.2-38.8S72.8-45.3,72.8-45.3z"/>
	<path class="st16" d="M55-34.5c0,0-7,7.9-3.8,19.3"/>
	<path class="st16" d="M66-31.8c0,0-6,5.3-8.7,16.8"/>
	<path class="st16" d="M77.8-27.2c0,0,0.3,13.3-11.8,18.5"/>
	<path class="st16" d="M69.1-4.9c0,0,5.6,1.5,10.6-2.1"/>
	<path class="st14" d="M50.3-9.7c0,0,13.8,9.7,8,21"/>
	<path class="st14" d="M52.7-11.2c0,0,17.8,2.5,11.6,20.6"/>
	<path class="st17" d="M53.4,11.5c-2.8,1.1-7.5,4.1-9.1,5.3c-0.5,0.4-1,0.8-1.4,1.1c-6.2,5.1-13.1,12.7-13.6,21.6
		c-1.2,19.3,5.2,42.7,5.9,45.5c0.1,0.2,0.1,0.4,0.1,0.6c0,1.8-0.1,11.7-1,13.7c-1,2.2,34.9,16.2,50.4,2.1c0.1-0.1,0.1-0.1,0.2-0.2
		l7.2-7.7c0.6-0.7,0.7-1.7,0.2-2.5l-2.6-4c-0.6-0.9-0.4-2.2,0.6-2.8c1-0.7,1.8-1.6,0.8-2.6c-1.4-1.2-0.4-2.1,0.3-2.6
		c0.5-0.3,0.8-0.8,0.9-1.4c0.2-1.2,0.2-2.9-0.9-2.7c-1.8,0.3,2-2.5,1.9-3.5c-0.1-1-0.9-4.3-2.4-6.5c-1.1-1.7,0.8-1.5,1.8-1.4
		c0.4,0.1,0.8,0,1.2-0.2c2.1-1,8.9-4.8,6.8-10.5c-2.5-6.8-7.3-11-9.5-17.5s-1.1-15.2-6.8-18.5l-4.6-2.6c-0.6-0.4-1.5-0.4-2.1,0
		c-2.4,1.4-8.2,4.8-10.5,5.4c-3,0.8-7.2,1.9-7.2,0.9s-1.4-2.3-1-4.7c0.1-0.7,0.3-1.4,0.4-2c0.3-1.3-0.7-2.5-2-2.5
		c-0.9,0-1.8,0-2.1,0.2c-0.1,0-0.2,0.1-0.2,0.1C53.8,11.9,53.6,11.4,53.4,11.5"/>
	<path class="st18" d="M43.3-2"/>
	<path class="st19" d="M92.9-26.1c0,0,0.4,9.2,3.3,10.9s-1.6,9.5-1.6,9.5s1.6,6.4-0.7,7.4s-3.1,0-3.1,0s-1.3,3-3.4,1.8
		s-8.9,10.4-8.9,10.4s-25,16.9-18.7-2.1c0,0,10.1-2.4,12.2-10.1c0,0,1.8,1.3,7.7-0.7C85.6-1.3,93.1-23.1,92.9-26.1z"/>
	<path class="st17" d="M33.9,27.4c0,0-19.1,26.3-16.4,37.1c0,0-2.2,2.3-0.3,4.7c1.9,2.3,4.8,1.3,4.8,1.3s4.4,0.8,7.1,0.2
		s2.7-0.6,2.7-0.6S25,39.6,33.9,27.4z"/>
	<path class="st17" d="M39.2,90.3c0,0,0.6,6.3-1.2,8.5"/>
	<path class="st17" d="M42.5,92.2c0,0-0.2,3.2-2,6.7"/>
	<path class="st17" d="M46.8,93.3c0,0,1,4.3-2.2,7.2"/>
	<path class="st17" d="M50.3,94.6c0,0,0.3,3.6-0.8,6.8"/>
	<path class="st17" d="M55,95.5c0,0,1.3,5.2-2.4,7.2"/>
	<path class="st17" d="M61,95.5c0,0,2.2,4.7,0,7.2"/>
	<path class="st17" d="M91.2,74.8c0,0-14.8-0.8-16.9-5.2"/>
	<path class="st17" d="M90.3,80.5c0,0-6-1.5-9.3-1.3"/>
	<path class="st17" d="M44.7,55.8c0,0,7.2,12.7,3.3,26.7"/>
	<path class="st20" d="M86.5,19.3c0,0,20.7,11.2,35,34.2c0,0,20.8,0.7,35.9,9h7.6v9.8l-8.8-0.8c0,0-33.5,1.6-38.7-2.7
		c-5.2-4.3-28.9-5.2-37.8-23.7"/>
	<path class="st19" d="M164.8,62.4l4-0.9c0,0,4.3-2.1,5.9-5.2c0,0,1.8-1.3,4.7-3s3.1-2.8,3-1.6c-0.1,1.2,0,1.9,0,1.9s0.8,0.9,0,1.6
		s-6.1,4-5.1,4.4c1,0.4,1.8,2.4,6.5,1.2s12.8-2.8,12.8-2.8s2.5,0.7-1.6,2.5s-9,2.7-9,2.7s-1.2,1.6-0.3,1.6s14.9,0,14.9,0
		s3,1.2,0,2.7s-15.4,0.1-14.6,1.2s-2.5,1.5-0.6,2.3c1.9,0.8,12.7,1.5,12.7,1.5s2.5,1.9-1.2,2.4c-3.7,0.4-12.4-1.6-12.4-1.6
		s-1.8,1.2-0.4,1.7c1.3,0.5,9.7,2.7,9.7,2.7s1.9,3.8-1.9,2.4c-3.8-1.5-10.8-4.1-10.8-4.1s-13,0-16.4-4.9S164.8,62.4,164.8,62.4z"/>
	<path class="st21" d="M61,155.5c0,0-4.9-2.2-6,5.2c-1,7.3,0,17.4,0,17.4s11.7,12.2,20-2.1c0,0,17.6-3.3,12.3-17l-6.3-4.5l-12.5,4.9
		L61,155.5z"/>
	<path class="st22" d="M61,148.3l0.5,11.1c0,0,3.1,3,7,0c3.9-3,2.9-10.7,2.9-10.7L61,148.3z"/>
	<path class="st22" d="M92.9,149.8c0,0-1.5,14.2-1.7,10.8c0,0,3.9,7.5,9.7,1.9l1.7-12.8H92.9z"/>
	<path class="st21" d="M91.2,157.2c0,0-4.2-3.9-5.6,5.3c-1.4,9.2,0,15.5,0,15.5s16.3,8.1,21.3,0c5-8.1,3.7-17.4,3.7-17.4
		s-5.9-8.2-9.8-3.4C97,162,91.2,157.2,91.2,157.2z"/>
</g>
<g id="Слой_7" class="st0">
	<path class="st1" d="M264.8,147.1c0,0-10-99.2-22.5-119.6S215,2.5,213.7,9.5s14.9,13.9,14.9,13.9s18.8,26.7,27.8,114.4"/>
	<path class="st1" d="M-18.6,135.6c0,0,2.4-58.6-20.6-99.1S-57.7,0.8-57.7,0.8s52,24.3,44,134.7"/>
	<polygon class="st23" points="-49.2,27.4 -44.2,45.8 254.3,36.6 249.8,19.3 	"/>
	<path class="st24" d="M264.8,92.2c-3.5-0.7-296-3.3-296-3.3l4.5,11.6l291.5,11.7V92.2z"/>
</g>
</svg>
