<?xml version="1.0" encoding="utf-8"?>
<!-- Generator: Adobe Illustrator 21.0.1, SVG Export Plug-In . SVG Version: 6.00 Build 0)  -->
<svg version="1.1" xmlns="http://www.w3.org/2000/svg" xmlns:xlink="http://www.w3.org/1999/xlink" x="0px" y="0px"
	 viewBox="0 0 126.3 64" style="enable-background:new 0 0 126.3 64;" xml:space="preserve">
<style type="text/css">
	.st0{display:none;}
	.st1{display:inline;fill:#956A42;stroke:#000000;stroke-miterlimit:10;}
	.st2{display:inline;fill:#476681;stroke:#000000;stroke-miterlimit:10;}
	.st3{display:inline;}
	.st4{fill:none;stroke:#000000;stroke-miterlimit:10;}
	.st5{fill:#002E20;stroke:#000000;stroke-miterlimit:10;}
	.st6{fill:#FBB89A;stroke:#000000;stroke-miterlimit:10;}
	.st7{display:inline;fill:#6A8377;stroke:#000000;stroke-miterlimit:10;}
	.st8{display:inline;fill:none;stroke:#000000;stroke-miterlimit:10;}
	.st9{display:inline;fill:#C26A42;stroke:#000000;stroke-miterlimit:10;}
	.st10{display:inline;fill:#002E20;stroke:#000000;stroke-miterlimit:10;}
	.st11{display:inline;fill:#FBB89A;stroke:#000000;stroke-miterlimit:10;}
	.st12{display:inline;fill:#151A16;stroke:#000000;stroke-miterlimit:10;}
	.st13{display:inline;fill:#472A3B;stroke:#000000;stroke-miterlimit:10;}
	.st14{display:none;fill:#C0C0AC;stroke:#000000;stroke-miterlimit:10;}
	.st15{display:none;fill:#6A8377;stroke:#000000;stroke-miterlimit:10;}
	.st16{display:none;fill:#A9A6A7;stroke:#000000;stroke-miterlimit:10;}
	.st17{display:none;fill:#564338;stroke:#000000;stroke-miterlimit:10;}
	.st18{display:none;fill:#FFFFFF;stroke:#000000;stroke-miterlimit:10;}
	.st19{display:none;fill:#E8C0A9;stroke:#000000;stroke-miterlimit:10;}
	.st20{fill:#564338;stroke:#000000;stroke-miterlimit:10;}
	.st21{fill:#E8C0A9;stroke:#000000;stroke-miterlimit:10;}
	.st22{display:none;fill:#567286;stroke:#000000;stroke-miterlimit:10;}
	.st23{display:none;fill:#684F42;stroke:#000000;stroke-miterlimit:10;}
	.st24{display:inline;fill:#684F42;stroke:#000000;stroke-miterlimit:10;}
	.st25{display:inline;fill:#954836;stroke:#000000;stroke-miterlimit:10;}
</style>
<g id="Слой_6" class="st0">
	<path class="st1" d="M35.9,91.2l149.7-2.4l27-0.4c0,0,6-2.7,8.5,4.6s-43,43.3-43,43.3s-263-9.5-265.5-10s-19,0-19,0V115
		c0,0-5-2.8,2.5-5.3s53.4-16.8,53.4-16.8"/>
	<path class="st1" d="M-106.3,126.2v52c0,0,4,5,12,0s2-52.2,2-52.2l2.2-6.8"/>
	<path class="st1" d="M-50.6,127.7v25.4c0,0-2.1,6.5,4.8,5.5s4.7-8.9,4.7-8.9v-19.6l0.6-2.4H-50.6z"/>
	<path class="st1" d="M159.2,136.2c0,0-1.5,43,0,48s14.5,4.5,14.5,4.5l11.5-12v-46.2C185.2,130.5,181.2,135.2,159.2,136.2z"/>
	<path class="st1" d="M221.2,92.9v43.3c0,0-3,10.7-8.5,7.1c-5.5-3.6-4-33.5-4-33.5S223.7,96.8,221.2,92.9z"/>
</g>
<g id="Слой_2" class="st0">
	<path class="st2" d="M141,94.7l6-4.3h11c0,0,15.7-23.3,1.7-27.2s-21-2.7-21-2.7l-8.8,2.7c0,0-19.8,13.2-1.3,20.2S141,94.7,141,94.7
		z"/>
	<g id="Слой_5" class="st3">
		<path class="st4" d="M126.7-56.5h-15c0,0-3.9,0.2-1.5,2.5c2.3,2.3,0.8,1.6,0.8,1.6"/>
		<path class="st4" d="M76.2-20c0,0,7.7,2.5,14.2,1.7"/>
		<path class="st4" d="M74.7-24.2"/>
		<path class="st5" d="M74.7-24.2c0,0-16.1-1.5-24.4,14.4s-10.7,47.9-7.7,71s4,40.5,4,40.5s3.5,13.3,25.7,10.7c0,0,28.8,7.7,46.5-3
			S141,94.7,141,94.7s3.3-20.7-5.7-23.7s-10.7-36.7-8.2-53.3s12.8-21,4.2-30S76.2-23.9,76.2-23.9L74.7-24.2z"/>
	</g>
	<g id="Слой_3" class="st3">
		<path class="st4" d="M115.8-55.4c0,0-2.7-0.5-3,1.5c-0.3,2-1.7,1.6-1.7,1.6l0.8-4.9l10.5-0.9l4.4-0.4v5.7h-4.8L115.8-55.4z"/>
		<path class="st6" d="M122.4-56.3c1,0.2,5,1.3,5.7,6.1c0.7,4.8-2.8,12.3-2.8,12.3s3,1.2,1.5,4.2s-4.3,2.5-4.3,2.5s0.8,4.2-1,5.4
			c-1.8,1.2-3.5,3.7-3.5,3.7s-7.8,2.7-8.3,2.7s-8.7,2.8-10.8,8.5c-2.2,5.7-28.8,4.5-26.2-4s2.7-6,2.7-6l2-29.1c0,0,7.5-30.4,25-25.3
			C119.7-70.3,122.4-56.3,122.4-56.3z"/>
	</g>
	<g id="Слой_4" class="st3">
	</g>
	<path class="st7" d="M95.7-79.8c-1,0-5.3-1.5-11.3,1.5S75.9-76,72.7-65.8c-3.2,10.2-1.3,34.5-1.3,34.5l2.5-10.5L75.6-26l3.2-12
		c0,0,0.8,14.5,0.8,13.8c0-0.8,3.7-12.3,3.7-12.3l2.1,13l4.3-13l4.2,14.2l1.8-7.2c0,0-0.8,6.9,0,6.4c0.8-0.5,2.8-6.4,2.8-6.4
		l0.8,7.2l3-14.2l2,12.3l2.5-9.6l2.3,7.8v-9.5l1.3,9.5l3.7-8.8l1.5,8.8l3.5-10.5v6.9l1.5-17.6c0,0-1.5,5-3.8,0.3
		c-2.3-4.7-1.2-16,1.8-11.8s2,3,2,3l0.2-8.5l1.5,6.2c0,0,4-20.8-6.8-22.2C104.7-81.6,95.7-79.8,95.7-79.8z"/>
	<path class="st7" d="M80.4-64.1l-1,9l4.3-9c0,0-0.3,21.7,0,20.5c0.3-1.2,5.5-13.3,5.5-13.3v10.2c0,0,5-12.8,4.8-11.8
		s1.2,9.6,1.2,9.6l1.8-7.1l1.4,15.5l3-11v7.7l2.3-7.6"/>
	<line class="st8" x1="120.5" y1="-25.3" x2="122.3" y2="-24.2"/>
	<line class="st8" x1="122.6" y1="-28.3" x2="124.8" y2="-27"/>
	<line class="st8" x1="125.6" y1="-32.3" x2="126.7" y2="-30.5"/>
	<line class="st8" x1="122.6" y1="-35.8" x2="124.8" y2="-34.8"/>
	<line class="st8" x1="124.8" y1="-41.9" x2="128.2" y2="-40.6"/>
	<line class="st8" x1="127.2" y1="-35.3" x2="129.8" y2="-34.8"/>
	<polygon class="st9" points="219.8,15 224,10.7 224,15.8 227.7,13.3 232.2,15.8 232.2,19.2 235.7,19.2 235.7,24.1 227,34.8 
		212.7,29.7 	"/>
	<polyline class="st10" points="131.3,-12.3 167.7,21.7 207.3,26.5 208.7,36.5 166,36.5 120.5,16.7 	"/>
	<path class="st11" d="M206,26.8c0,0,2.3-3.5,6.4-6.5s4.1-4.4,4.1-4.4s0.4-5.5,2.1-3.8s1,5.6,1,5.6s-3.8,5.6-3.8,6.5
		s0.8,3.8,5.9,4.4s16.4-6.8,20.9-6.1s0,3.1,0,3.1l-3.4,2.4c0,0,3,2.6-0.1,4c-3.1,1.4,0.9,3.9-3.1,4s-1.6,1-4.3,2.6s-10.5,4.8-13.8,3
		s-11.1-5-11.1-5L206,26.8z"/>
	<path class="st12" d="M76.2,143.2v15.5c0,0,13,9.9,26.7-1.4l4.4-7.6C107.3,149.8,113.5,134.2,76.2,143.2z"/>
	<path class="st12" d="M130.7,143.2c-6.7-1.6-5,16.3-5,16.3s5.3,9.5,26.3,2.8c0,0,4.3,0.5,4-10.8S130.7,143.2,130.7,143.2z"/>
	<path class="st2" d="M76.2,132.5l-3.9,21.4c0,0-2.7,3.8,10.9,0s0-2.3,0-2.3s10.2,4.8,16.9,4c6.7-0.9,5.1-8.5,5.1-8.5l0.2-13.5
		L76.2,132.5z"/>
	<path class="st2" d="M125.5,134.3l-3.1,21.4c0,0,2.5,5.2,11.6,3.1c9.1-2.1,16.8,0.8,16.8,0.8s8,0.1,6.7-3.9c-1.3-4.1-4-19.2-4-19.2
		L125.5,134.3z"/>
</g>
<g id="Слой_8" class="st0">
	<path class="st13" d="M295.7,164.8c0,0-99-81.3-100.5-91.9s4.7-16.4,10.8-13c6.2,3.3,9,9.7,9,9.7s-5.3,4.3-6.3,1.4
		s-3.5-7.8-6.5-4.8c-3,3-2,7.2,0,9.1s96.5,84.3,96.5,84.3L295.7,164.8z"/>
</g>
<g id="Слой_1">
	<path class="st14" d="M-22.3-34.3c0,0-14-3-14,13s14,13.5,14,13.5s14-2,14-10.5S-22.3-34.3-22.3-34.3z"/>
	<path class="st15" d="M-44.4,81.2c0,0-6.9,8.8-6.1,14.8c0,0-1.2,9.5,6.1,12.8s17,0.5,30.3,4.8s25.3,3.3,33.5,0s16.5-22.3,16.5-22.3
		l3.5-0.5c0,0,6.3-17.1-3.8-19.7s-24.1-0.9-24.1-0.9L-44.4,81.2z"/>
	<path class="st16" d="M-6.8-64.7c0,0-23-3.2-27.2,13.5s0.7,19.9,0.7,19.9s0.2-2,4.1-2.6s4-2.5,7.9,0.2c4,2.7,9.7,7.9,10.2,8.5
		c0.4,0.6,2.7,6.8,2.7,6.8s3,4.2,9.7-1s17.8-25.5,8.2-38.8S-6.8-64.7-6.8-64.7z"/>
	<path class="st16" d="M-24.7-53.8c0,0-7,7.9-3.8,19.3"/>
	<path class="st16" d="M-13.7-51.2c0,0-6,5.3-8.7,16.8"/>
	<path class="st16" d="M-1.8-46.5c0,0,0.3,13.3-11.8,18.5"/>
	<path class="st16" d="M-10.6-24.2c0,0,5.6,1.5,10.6-2.1"/>
	<path class="st14" d="M-29.3-29c0,0,13.8,9.7,8,21"/>
	<path class="st14" d="M-27-30.5c0,0,17.8,2.5,11.6,20.6"/>
	<path class="st17" d="M-26.3-7.8c-2.8,1.1-7.5,4.1-9.1,5.3c-0.5,0.4-1,0.8-1.4,1.1C-43,3.8-49.9,11.4-50.4,20.3
		c-1.2,19.3,5.2,42.7,5.9,45.5c0.1,0.2,0.1,0.4,0.1,0.6c0,1.8-0.1,11.7-1,13.7c-1,2.2,34.9,16.2,50.4,2.1C5,82,5.1,82,5.2,81.9
		l7.2-7.7c0.6-0.7,0.7-1.7,0.2-2.5l-2.6-4c-0.6-0.9-0.4-2.2,0.6-2.8c1-0.7,1.8-1.6,0.8-2.6c-1.4-1.2-0.4-2.1,0.3-2.6
		c0.5-0.3,0.8-0.8,0.9-1.4c0.2-1.2,0.2-2.9-0.9-2.7c-1.8,0.3,2-2.5,1.9-3.5s-0.9-4.3-2.4-6.5c-1.1-1.7,0.8-1.5,1.8-1.4
		c0.4,0.1,0.8,0,1.2-0.2c2.1-1,8.9-4.8,6.8-10.5c-2.5-6.8-7.2-11-9.5-17.5S10.2,0.8,4.6-2.5L0-5.1c-0.6-0.4-1.5-0.4-2.1,0
		c-2.4,1.4-8.2,4.8-10.5,5.4c-3,0.8-7.2,1.9-7.2,0.9c0-1-1.4-2.3-1-4.7c0.1-0.7,0.3-1.4,0.4-2c0.3-1.3-0.7-2.5-2-2.5
		c-0.9,0-1.8,0-2.1,0.2c-0.1,0-0.2,0.1-0.2,0.1C-25.8-7.5-26.1-8-26.3-7.8"/>
	<path class="st18" d="M-36.3-21.3"/>
	<path class="st19" d="M13.3-45.5c0,0,0.4,9.2,3.3,10.9s-1.6,9.5-1.6,9.5s1.6,6.4-0.7,7.4s-3.1,0-3.1,0s-1.3,3-3.4,1.8
		S-1.2-5.6-1.2-5.6s-25,16.9-18.7-2.1c0,0,10.1-2.4,12.2-10.1c0,0,1.8,1.3,7.7-0.7S13.4-42.5,13.3-45.5z"/>
	<path class="st17" d="M-45.8,8.1c0,0-19.1,26.3-16.4,37.1c0,0-2.2,2.3-0.3,4.7c1.9,2.3,4.8,1.3,4.8,1.3s4.4,0.8,7.1,0.2
		c2.7-0.6,2.7-0.6,2.7-0.6S-54.7,20.3-45.8,8.1z"/>
	<path class="st17" d="M-40.5,71c0,0,0.6,6.3-1.2,8.5"/>
	<path class="st17" d="M-37.2,72.8c0,0-0.2,3.2-2,6.7"/>
	<path class="st17" d="M-32.8,74c0,0,1,4.3-2.2,7.2"/>
	<path class="st17" d="M-29.3,75.3c0,0,0.3,3.6-0.8,6.8"/>
	<path class="st17" d="M-24.6,76.2c0,0,1.3,5.2-2.4,7.2"/>
	<path class="st17" d="M-18.7,76.2c0,0,2.2,4.7,0,7.2"/>
	<path class="st17" d="M11.6,55.5c0,0-14.8-0.8-16.9-5.2"/>
	<path class="st17" d="M10.6,61.2c0,0-6-1.5-9.3-1.3"/>
	<path class="st17" d="M-35,36.5c0,0,7.2,12.7,3.3,26.7"/>
	<path class="st20" d="M6.8,0c0,0,20.7,11.2,35,34.2c0,0,20.8,0.7,35.9,9h7.6v9.8l-8.8-0.8c0,0-33.5,1.6-38.7-2.7S8.8,44.2,0,25.7"
		/>
	<path class="st21" d="M85.1,43.1l4-0.9c0,0,4.3-2.1,5.9-5.2c0,0,1.8-1.3,4.7-3c3-1.6,3.1-2.8,3-1.6s0,1.9,0,1.9s0.8,0.9,0,1.6
		s-6.1,4-5.1,4.4c1,0.4,1.8,2.4,6.5,1.2s12.8-2.8,12.8-2.8s2.5,0.7-1.6,2.5s-9,2.7-9,2.7s-1.2,1.6-0.3,1.6c0.9,0,14.9,0,14.9,0
		s3,1.2,0,2.7c-3,1.5-15.4,0.1-14.6,1.2c0.7,1-2.5,1.5-0.6,2.3c1.9,0.8,12.7,1.5,12.7,1.5s2.5,1.9-1.2,2.4S104.9,54,104.9,54
		s-1.8,1.2-0.4,1.7c1.3,0.5,9.7,2.7,9.7,2.7s1.9,3.8-1.9,2.4s-10.8-4.1-10.8-4.1s-13,0-16.4-4.9C81.7,46.8,85.1,43.1,85.1,43.1z"/>
	<path class="st22" d="M-18.7,136.2c0,0-4.9-2.2-6,5.2c-1,7.3,0,17.4,0,17.4s11.7,12.2,20-2.1c0,0,17.6-3.3,12.3-17l-6.3-4.5
		l-12.5,4.9L-18.7,136.2z"/>
	<path class="st23" d="M-18.7,128.9l0.5,11.1c0,0,3.1,3,7,0s2.9-10.7,2.9-10.7L-18.7,128.9z"/>
	<path class="st23" d="M13.3,130.5c0,0-1.5,14.2-1.7,10.8c0,0,3.9,7.5,9.7,1.9l1.7-12.8H13.3z"/>
	<path class="st22" d="M11.6,137.9c0,0-4.2-3.9-5.6,5.3s0,15.5,0,15.5s16.3,8.1,21.3,0c5-8.1,3.7-17.4,3.7-17.4s-5.9-8.2-9.8-3.4
		C17.3,142.7,11.6,137.9,11.6,137.9z"/>
</g>
<g id="Слой_7" class="st0">
	<path class="st1" d="M185.2,127.7c0,0-10-99.2-22.5-119.6S135.3-16.9,134-9.9C132.7-2.8,148.8,4,148.8,4s18.8,26.7,27.8,114.4"/>
	<path class="st1" d="M-98.3,116.2c0,0,2.4-58.6-20.6-99.1s-18.5-35.7-18.5-35.7s52,24.3,44,134.7"/>
	<polygon class="st24" points="-128.8,8.1 -123.8,26.5 174.7,17.3 170.2,0 	"/>
	<path class="st25" d="M185.2,72.8c-3.5-0.7-296-3.3-296-3.3l4.5,11.6l291.5,11.7V72.8z"/>
</g>
</svg>
