<?xml version="1.0" encoding="utf-8"?>
<!-- Generator: Adobe Illustrator 21.0.1, SVG Export Plug-In . SVG Version: 6.00 Build 0)  -->
<svg version="1.1" xmlns="http://www.w3.org/2000/svg" xmlns:xlink="http://www.w3.org/1999/xlink" x="0px" y="0px"
	 viewBox="0 0 341.3 159.3" style="enable-background:new 0 0 341.3 159.3;" xml:space="preserve">
<style type="text/css">
	.st0{display:none;}
	.st1{display:inline;fill:#956A42;stroke:#000000;stroke-miterlimit:10;}
	.st2{display:inline;fill:#476681;stroke:#000000;stroke-miterlimit:10;}
	.st3{display:inline;}
	.st4{fill:none;stroke:#000000;stroke-miterlimit:10;}
	.st5{fill:#002E20;stroke:#000000;stroke-miterlimit:10;}
	.st6{display:inline;fill:none;stroke:#000000;stroke-miterlimit:10;}
	.st7{display:inline;fill:#FBB89A;stroke:#000000;stroke-miterlimit:10;}
	.st8{fill:#6A8377;stroke:#000000;stroke-miterlimit:10;}
	.st9{fill:#C26A42;stroke:#000000;stroke-miterlimit:10;}
	.st10{fill:#FBB89A;stroke:#000000;stroke-miterlimit:10;}
	.st11{display:inline;fill:#151A16;stroke:#000000;stroke-miterlimit:10;}
	.st12{display:inline;fill:#472A3B;stroke:#000000;stroke-miterlimit:10;}
	.st13{fill:#C0C0AC;stroke:#000000;stroke-miterlimit:10;}
	.st14{fill:#A9A6A7;stroke:#000000;stroke-miterlimit:10;}
	.st15{display:inline;fill:#564338;stroke:#000000;stroke-miterlimit:10;}
	.st16{display:inline;fill:#FFFFFF;stroke:#000000;stroke-miterlimit:10;}
	.st17{fill:#E8C0A9;stroke:#000000;stroke-miterlimit:10;}
	.st18{display:inline;fill:#E8C0A9;stroke:#000000;stroke-miterlimit:10;}
	.st19{display:inline;fill:#567286;stroke:#000000;stroke-miterlimit:10;}
	.st20{display:inline;fill:#684F42;stroke:#000000;stroke-miterlimit:10;}
	.st21{fill:#956A42;stroke:#000000;stroke-miterlimit:10;}
	.st22{fill:#684F42;stroke:#000000;stroke-miterlimit:10;}
	.st23{fill:#954836;stroke:#000000;stroke-miterlimit:10;}
</style>
<g id="Слой_6" class="st0">
	<path class="st1" d="M187.6,119.2l149.7-2.4l27-0.4c0,0,6-2.7,8.5,4.6c2.5,7.3-43,43.3-43,43.3s-263-9.5-265.5-10
		c-2.5-0.5-19,0-19,0V143c0,0-5-2.8,2.5-5.3s53.4-16.8,53.4-16.8"/>
	<path class="st1" d="M45.3,154.2v52c0,0,4,5,12,0s2-52.2,2-52.2l2.2-6.8"/>
	<path class="st1" d="M101.1,155.7v25.4c0,0-2.1,6.5,4.8,5.5c6.9-1,4.7-8.9,4.7-8.9v-19.6l0.6-2.4H101.1z"/>
	<path class="st1" d="M310.8,164.2c0,0-1.5,43,0,48s14.5,4.5,14.5,4.5l11.5-12v-46.2C336.8,158.5,332.8,163.2,310.8,164.2z"/>
	<path class="st1" d="M372.8,120.9v43.3c0,0-3,10.7-8.5,7.1c-5.5-3.6-4-33.5-4-33.5S375.3,124.8,372.8,120.9z"/>
</g>
<g id="Слой_2" class="st0">
	<path class="st2" d="M292.7,122.7l6-4.3h11c0,0,15.7-23.3,1.7-27.2c-14-3.8-21-2.7-21-2.7l-8.8,2.7c0,0-19.8,13.2-1.3,20.2
		S292.7,122.7,292.7,122.7z"/>
	<g id="Слой_5" class="st3">
		<path class="st4" d="M278.4-28.5h-15c0,0-3.9,0.2-1.5,2.5c2.3,2.3,0.8,1.6,0.8,1.6"/>
		<path class="st4" d="M227.9,8c0,0,7.7,2.5,14.2,1.7"/>
		<path class="st4" d="M226.4,3.8"/>
		<path class="st5" d="M226.4,3.8c0,0-16.1-1.5-24.4,14.4s-10.7,47.9-7.7,71s4,40.5,4,40.5s3.5,13.3,25.7,10.7c0,0,28.8,7.7,46.5-3
			s22.1-14.7,22.1-14.7S296,102,287,99s-10.7-36.7-8.2-53.3c2.5-16.7,12.8-21,4.2-30S227.9,4.1,227.9,4.1L226.4,3.8z"/>
	</g>
	<g id="Слой_3">
		<path class="st6" d="M267.4-27.4c0,0-2.7-0.5-3,1.5c-0.3,2-1.7,1.6-1.7,1.6l0.8-4.9l10.5-0.9l4.4-0.4v5.7h-4.8L267.4-27.4z"/>
		<path class="st7" d="M274.1-28.3c1,0.2,5,1.3,5.7,6.1S276.9-10,276.9-10s3,1.2,1.5,4.2s-4.3,2.5-4.3,2.5s0.8,4.2-1,5.4
			c-1.8,1.2-3.5,3.7-3.5,3.7s-7.8,2.7-8.3,2.7s-8.7,2.8-10.8,8.5c-2.2,5.7-28.8,4.5-26.2-4s2.7-6,2.7-6l2-29.1c0,0,7.5-30.4,25-25.3
			S274.1-28.3,274.1-28.3z"/>
	</g>
	<g id="Слой_4">
	</g>
	<path class="st8" d="M247.4-51.8c-1,0-5.3-1.5-11.3,1.5s-8.5,2.3-11.7,12.5c-3.2,10.2-1.3,34.5-1.3,34.5l2.5-10.5L227.2,2l3.2-12
		c0,0,0.8,14.5,0.8,13.8S235-8.5,235-8.5l2.1,13l4.3-13l4.2,14.2l1.8-7.2c0,0-0.8,6.9,0,6.4c0.8-0.5,2.8-6.4,2.8-6.4l0.8,7.2l3-14.2
		l2,12.3l2.5-9.6l2.3,7.8v-9.5l1.3,9.5l3.7-8.8l1.5,8.8l3.5-10.5v6.9l1.5-17.6c0,0-1.5,5-3.8,0.3c-2.3-4.7-1.2-16,1.8-11.8s2,3,2,3
		l0.2-8.5l1.5,6.2c0,0,4-20.8-6.8-22.2C256.4-53.6,247.4-51.8,247.4-51.8z"/>
	<path class="st8" d="M232.1-36.1l-1,9l4.3-9c0,0-0.3,21.7,0,20.5c0.3-1.2,5.5-13.3,5.5-13.3v10.2c0,0,5-12.8,4.8-11.8
		s1.2,9.6,1.2,9.6l1.8-7.1l1.4,15.5l3-11v7.7l2.3-7.6"/>
	<line class="st4" x1="272.2" y1="2.7" x2="274" y2="3.8"/>
	<line class="st4" x1="274.2" y1="-0.3" x2="276.5" y2="1"/>
	<line class="st4" x1="277.2" y1="-4.3" x2="278.4" y2="-2.5"/>
	<line class="st4" x1="274.2" y1="-7.8" x2="276.5" y2="-6.8"/>
	<line class="st4" x1="276.5" y1="-13.9" x2="279.8" y2="-12.6"/>
	<line class="st4" x1="278.8" y1="-7.3" x2="281.5" y2="-6.8"/>
	<polygon class="st9" points="371.4,43 375.7,38.7 375.7,43.8 379.3,41.3 383.8,43.8 383.8,47.2 387.3,47.2 387.3,52.1 378.7,62.8 
		364.3,57.7 	"/>
	<polyline class="st5" points="283,15.7 319.3,49.7 359,54.5 360.3,64.5 317.7,64.5 272.2,44.7 	"/>
	<path class="st10" d="M357.7,54.8c0,0,2.3-3.5,6.4-6.5s4.1-4.4,4.1-4.4s0.4-5.5,2.1-3.8c1.8,1.7,1,5.6,1,5.6s-3.8,5.6-3.8,6.5
		s0.8,3.8,5.9,4.4s16.4-6.8,20.9-6.1s0,3.1,0,3.1l-3.4,2.4c0,0,3,2.6-0.1,4s0.9,3.9-3.1,4c-4,0.1-1.6,1-4.3,2.6s-10.5,4.8-13.8,3
		s-11.1-5-11.1-5L357.7,54.8z"/>
	<path class="st11" d="M227.9,171.2v15.5c0,0,13,9.9,26.7-1.4l4.4-7.6C259,177.8,265.2,162.2,227.9,171.2z"/>
	<path class="st11" d="M282.3,171.2c-6.7-1.6-5,16.3-5,16.3s5.3,9.5,26.3,2.8c0,0,4.3,0.5,4-10.8
		C307.3,168.3,282.3,171.2,282.3,171.2z"/>
	<path class="st2" d="M227.9,160.5l-3.9,21.4c0,0-2.7,3.8,10.9,0c13.7-3.8,0-2.3,0-2.3s10.2,4.8,16.9,4c6.7-0.9,5.1-8.5,5.1-8.5
		l0.2-13.5L227.9,160.5z"/>
	<path class="st2" d="M277.1,162.3l-3.1,21.4c0,0,2.5,5.2,11.6,3.1c9.1-2.1,16.8,0.8,16.8,0.8s8,0.1,6.7-3.9c-1.3-4.1-4-19.2-4-19.2
		L277.1,162.3z"/>
</g>
<g id="Слой_8" class="st0">
	<path class="st12" d="M447.3,192.8c0,0-99-81.3-100.5-91.9s4.7-16.4,10.8-13c6.2,3.3,9,9.7,9,9.7s-5.3,4.3-6.3,1.4
		s-3.5-7.8-6.5-4.8s-2,7.2,0,9.1s96.5,84.3,96.5,84.3L447.3,192.8z"/>
</g>
<g id="Слой_1" class="st0">
	<path class="st13" d="M129.3-6.3c0,0-14-3-14,13s14,13.5,14,13.5s14-2,14-10.5S129.3-6.3,129.3-6.3z"/>
	<path class="st8" d="M107.2,109.2c0,0-6.9,8.8-6.1,14.8c0,0-1.2,9.5,6.1,12.8c7.3,3.3,17,0.5,30.3,4.8s25.3,3.3,33.5,0
		s16.5-22.3,16.5-22.3l3.5-0.5c0,0,6.3-17.1-3.8-19.7s-24.1-0.9-24.1-0.9L107.2,109.2z"/>
	<path class="st14" d="M144.8-36.7c0,0-23-3.2-27.2,13.5c-4.2,16.7,0.7,19.9,0.7,19.9s0.2-2,4.1-2.6c3.9-0.7,4-2.5,7.9,0.2
		c4,2.7,9.7,7.9,10.2,8.5c0.4,0.6,2.7,6.8,2.7,6.8s3,4.2,9.7-1s17.8-25.5,8.2-38.8C151.5-43.5,144.8-36.7,144.8-36.7z"/>
	<path class="st14" d="M127-25.8c0,0-7,7.9-3.8,19.3"/>
	<path class="st14" d="M138-23.2c0,0-6,5.3-8.7,16.8"/>
	<path class="st14" d="M149.8-18.5c0,0,0.3,13.3-11.8,18.5"/>
	<path class="st14" d="M141.1,3.8c0,0,5.6,1.5,10.6-2.1"/>
	<path class="st13" d="M122.3-1c0,0,13.8,9.7,8,21"/>
	<path class="st13" d="M124.7-2.5c0,0,17.8,2.5,11.6,20.6"/>
	<path class="st15" d="M125.4,20.2c-2.8,1.1-7.5,4.1-9.1,5.3c-0.5,0.4-1,0.8-1.4,1.1c-6.2,5.1-13.1,12.7-13.6,21.6
		c-1.2,19.3,5.2,42.7,5.9,45.5c0.1,0.2,0.1,0.4,0.1,0.6c0,1.8-0.1,11.7-1,13.7c-1,2.2,34.9,16.2,50.4,2.1c0.1-0.1,0.1-0.1,0.2-0.2
		l7.2-7.7c0.6-0.7,0.7-1.7,0.2-2.5l-2.6-4c-0.6-0.9-0.4-2.2,0.6-2.8c1-0.7,1.8-1.6,0.8-2.6c-1.4-1.2-0.4-2.1,0.3-2.6
		c0.5-0.3,0.8-0.8,0.9-1.4c0.2-1.2,0.2-2.9-0.9-2.7c-1.8,0.3,2-2.5,1.9-3.5c-0.1-1-0.9-4.3-2.4-6.5c-1.1-1.7,0.8-1.5,1.8-1.4
		c0.4,0.1,0.8,0,1.2-0.2c2.1-1,8.9-4.8,6.8-10.5c-2.5-6.8-7.3-11-9.5-17.5s-1.1-15.3-6.8-18.5l-4.6-2.6c-0.6-0.4-1.5-0.4-2.1,0
		c-2.4,1.4-8.2,4.8-10.5,5.4c-3,0.8-7.2,1.9-7.2,0.9s-1.4-2.3-1-4.7c0.1-0.7,0.3-1.4,0.4-2c0.3-1.3-0.7-2.5-2-2.5
		c-0.9,0-1.8,0-2.1,0.2c-0.1,0-0.2,0.1-0.2,0.1C125.8,20.5,125.6,20,125.4,20.2"/>
	<path class="st16" d="M115.3,6.7"/>
	<path class="st17" d="M164.9-17.5c0,0,0.4,9.2,3.3,10.9s-1.6,9.5-1.6,9.5s1.6,6.4-0.7,7.4s-3.1,0-3.1,0s-1.3,3-3.4,1.8
		s-8.9,10.4-8.9,10.4s-25,16.9-18.7-2.1c0,0,10.1-2.4,12.2-10.1c0,0,1.8,1.3,7.7-0.7C157.6,7.4,165.1-14.5,164.9-17.5z"/>
	<path class="st15" d="M105.9,36.1c0,0-19.1,26.3-16.4,37.1c0,0-2.2,2.3-0.3,4.7c1.9,2.3,4.8,1.3,4.8,1.3s4.4,0.8,7.1,0.2
		c2.7-0.6,2.7-0.6,2.7-0.6S97,48.3,105.9,36.1z"/>
	<path class="st15" d="M111.2,99c0,0,0.6,6.3-1.2,8.5"/>
	<path class="st15" d="M114.5,100.8c0,0-0.2,3.2-2,6.7"/>
	<path class="st15" d="M118.8,102c0,0,1,4.3-2.2,7.2"/>
	<path class="st15" d="M122.3,103.3c0,0,0.3,3.6-0.8,6.8"/>
	<path class="st15" d="M127,104.2c0,0,1.3,5.2-2.4,7.2"/>
	<path class="st15" d="M133,104.2c0,0,2.2,4.7,0,7.2"/>
	<path class="st15" d="M163.2,83.5c0,0-14.8-0.8-16.9-5.2"/>
	<path class="st15" d="M162.3,89.2c0,0-6-1.5-9.3-1.3"/>
	<path class="st15" d="M116.7,64.5c0,0,7.2,12.7,3.3,26.7"/>
	<path class="st15" d="M158.5,28c0,0,20.7,11.2,35,34.2c0,0,20.8,0.7,35.9,9h7.6v9.8l-8.8-0.8c0,0-33.5,1.6-38.7-2.7
		c-5.2-4.3-28.9-5.2-37.8-23.7"/>
	<path class="st18" d="M236.8,71.1l4-0.9c0,0,4.3-2.1,5.9-5.2c0,0,1.8-1.3,4.7-3c3-1.6,3.1-2.8,3-1.6c-0.1,1.2,0,1.9,0,1.9
		s0.8,0.9,0,1.6c-0.8,0.7-6.1,4-5.1,4.4c1,0.4,1.8,2.4,6.5,1.2c4.7-1.2,12.8-2.8,12.8-2.8s2.5,0.7-1.6,2.5s-9,2.7-9,2.7
		s-1.2,1.6-0.3,1.6c0.9,0,14.9,0,14.9,0s3,1.2,0,2.7c-3,1.5-15.4,0.1-14.6,1.2s-2.5,1.5-0.6,2.3c1.9,0.8,12.7,1.5,12.7,1.5
		s2.5,1.9-1.2,2.4S256.6,82,256.6,82s-1.8,1.2-0.4,1.7c1.3,0.5,9.7,2.7,9.7,2.7s1.9,3.8-1.9,2.4c-3.8-1.5-10.8-4.1-10.8-4.1
		s-13,0-16.4-4.9C233.4,74.8,236.8,71.1,236.8,71.1z"/>
	<path class="st19" d="M133,164.2c0,0-4.9-2.2-6,5.2c-1,7.3,0,17.4,0,17.4s11.7,12.2,20-2.1c0,0,17.6-3.3,12.3-17l-6.3-4.5
		l-12.5,4.9L133,164.2z"/>
	<path class="st20" d="M133,156.9l0.5,11.1c0,0,3.1,3,7,0s2.9-10.7,2.9-10.7L133,156.9z"/>
	<path class="st20" d="M164.9,158.5c0,0-1.5,14.2-1.7,10.8c0,0,3.9,7.5,9.7,1.9l1.7-12.8H164.9z"/>
	<path class="st19" d="M163.2,165.9c0,0-4.2-3.9-5.6,5.3s0,15.5,0,15.5s16.3,8.1,21.3,0c5-8.1,3.7-17.4,3.7-17.4s-5.9-8.2-9.8-3.4
		C169,170.7,163.2,165.9,163.2,165.9z"/>
</g>
<g id="Слой_7">
	<path class="st21" d="M336.8,155.7c0,0-10-99.2-22.5-119.6S287,11.1,285.7,18.1S300.5,32,300.5,32s18.8,26.7,27.8,114.4"/>
	<path class="st21" d="M53.4,144.2c0,0,2.4-58.6-20.6-99.1S14.3,9.5,14.3,9.5s52,24.3,44,134.7"/>
	<polygon class="st22" points="22.8,36.1 27.8,54.5 326.3,45.3 321.8,28 	"/>
	<path class="st23" d="M336.8,100.8c-3.5-0.7-296-3.3-296-3.3l4.5,11.6l291.5,11.7V100.8z"/>
</g>
</svg>
