<?xml version="1.0" encoding="utf-8"?>
<!-- Generator: Adobe Illustrator 21.0.1, SVG Export Plug-In . SVG Version: 6.00 Build 0)  -->
<svg version="1.1" xmlns="http://www.w3.org/2000/svg" xmlns:xlink="http://www.w3.org/1999/xlink" x="0px" y="0px"
	 viewBox="0 0 137.3 67.7" style="enable-background:new 0 0 137.3 67.7;" xml:space="preserve">
<style type="text/css">
	.st0{display:none;}
	.st1{display:inline;fill:#956A42;stroke:#000000;stroke-miterlimit:10;}
	.st2{display:none;fill:#476681;stroke:#000000;stroke-miterlimit:10;}
	.st3{display:inline;fill:none;stroke:#000000;stroke-miterlimit:10;}
	.st4{display:inline;fill:#002E20;stroke:#000000;stroke-miterlimit:10;}
	.st5{display:inline;fill:#FBB89A;stroke:#000000;stroke-miterlimit:10;}
	.st6{display:none;fill:#6A8377;stroke:#000000;stroke-miterlimit:10;}
	.st7{display:none;fill:none;stroke:#000000;stroke-miterlimit:10;}
	.st8{fill:#C26A42;stroke:#000000;stroke-miterlimit:10;}
	.st9{fill:#002E20;stroke:#000000;stroke-miterlimit:10;}
	.st10{fill:#FBB89A;stroke:#000000;stroke-miterlimit:10;}
	.st11{display:none;fill:#151A16;stroke:#000000;stroke-miterlimit:10;}
	.st12{display:inline;fill:#472A3B;stroke:#000000;stroke-miterlimit:10;}
	.st13{fill:#C0C0AC;stroke:#000000;stroke-miterlimit:10;}
	.st14{fill:#6A8377;stroke:#000000;stroke-miterlimit:10;}
	.st15{fill:#A9A6A7;stroke:#000000;stroke-miterlimit:10;}
	.st16{display:inline;fill:#564338;stroke:#000000;stroke-miterlimit:10;}
	.st17{display:inline;fill:#FFFFFF;stroke:#000000;stroke-miterlimit:10;}
	.st18{fill:#E8C0A9;stroke:#000000;stroke-miterlimit:10;}
	.st19{display:inline;fill:#E8C0A9;stroke:#000000;stroke-miterlimit:10;}
	.st20{display:inline;fill:#567286;stroke:#000000;stroke-miterlimit:10;}
	.st21{display:inline;fill:#684F42;stroke:#000000;stroke-miterlimit:10;}
	.st22{display:inline;fill:#954836;stroke:#000000;stroke-miterlimit:10;}
</style>
<g id="Слой_6" class="st0">
	<path class="st1" d="M-77.8,111.5L72,109.1l27-0.4c0,0,6-2.7,8.5,4.6c2.5,7.3-43,43.3-43,43.3s-263-9.5-265.5-10s-19,0-19,0v-11.2
		c0,0-5-2.8,2.5-5.3s53.4-16.8,53.4-16.8"/>
	<path class="st1" d="M-220,146.5v52c0,0,4,5,12,0s2-52.2,2-52.2l2.2-6.8"/>
	<path class="st1" d="M-164.2,148.1v25.4c0,0-2.1,6.5,4.8,5.5s4.7-8.9,4.7-8.9v-19.6l0.6-2.4H-164.2z"/>
	<path class="st1" d="M45.5,156.5c0,0-1.5,43,0,48S60,209,60,209l11.5-12v-46.2C71.5,150.8,67.5,155.5,45.5,156.5z"/>
	<path class="st1" d="M107.5,113.2v43.3c0,0-3,10.7-8.5,7.1c-5.5-3.6-4-33.5-4-33.5S110,117.1,107.5,113.2z"/>
</g>
<g id="Слой_2">
	<path class="st2" d="M27.3,115l6-4.3h11c0,0,15.7-23.3,1.7-27.2s-21-2.7-21-2.7l-8.8,2.7c0,0-19.8,13.2-1.3,20.2S27.3,115,27.3,115
		z"/>
	<g id="Слой_5" class="st0">
		<path class="st3" d="M13.1-36.1h-15c0,0-3.9,0.2-1.5,2.5S-2.6-32-2.6-32"/>
		<path class="st3" d="M-37.4,0.4c0,0,7.7,2.5,14.2,1.7"/>
		<path class="st3" d="M-38.9-3.9"/>
		<path class="st4" d="M-38.9-3.9c0,0-16.1-1.5-24.4,14.4S-74,58.3-71,81.5s4,40.5,4,40.5s3.5,13.3,25.7,10.7c0,0,28.8,7.7,46.5-3
			C23,119,27.3,115,27.3,115s3.3-20.7-5.7-23.7S11,54.7,13.5,38s12.8-21,4.2-30S-37.4-3.5-37.4-3.5L-38.9-3.9z"/>
	</g>
	<g id="Слой_3" class="st0">
		<path class="st3" d="M2.1-35.1c0,0-2.7-0.5-3,1.5S-2.6-32-2.6-32l0.8-4.9l10.5-0.9l4.4-0.4v5.7H8.2L2.1-35.1z"/>
		<path class="st5" d="M8.7-36c1,0.2,5,1.3,5.7,6.1c0.7,4.8-2.8,12.3-2.8,12.3s3,1.2,1.5,4.2S8.7-11,8.7-11s0.8,4.2-1,5.4
			S4.2-2,4.2-2s-7.8,2.7-8.3,2.7s-8.7,2.8-10.8,8.5s-28.8,4.5-26.2-4s2.7-6,2.7-6l2-29.1c0,0,7.5-30.4,25-25.3S8.7-36,8.7-36z"/>
	</g>
	<g id="Слой_4" class="st0">
	</g>
	<path class="st6" d="M-17.9-59.5c-1,0-5.3-1.5-11.3,1.5s-8.5,2.3-11.7,12.5C-44.1-35.3-42.3-11-42.3-11l2.5-10.5l1.7,15.8l3.2-12
		c0,0,0.8,14.5,0.8,13.8s3.7-12.3,3.7-12.3l2.1,13l4.3-13L-19.8-2l1.8-7.2c0,0-0.8,6.9,0,6.4c0.8-0.5,2.8-6.4,2.8-6.4l0.8,7.2
		l3-14.2l2,12.3l2.5-9.6l2.3,7.8v-9.5l1.3,9.5l3.7-8.8l1.5,8.8l3.5-10.5v6.9l1.5-17.6c0,0-1.5,5-3.8,0.3s-1.2-16,1.8-11.8s2,3,2,3
		l0.2-8.5l1.5,6.2c0,0,4-20.8-6.8-22.2S-17.9-59.5-17.9-59.5z"/>
	<path class="st6" d="M-33.3-43.8l-1,9l4.3-9c0,0-0.3,21.7,0,20.5c0.3-1.2,5.5-13.3,5.5-13.3v10.2c0,0,5-12.8,4.8-11.8
		c-0.2,1,1.2,9.6,1.2,9.6l1.8-7.1l1.4,15.5l3-11v7.7l2.3-7.6"/>
	<line class="st7" x1="6.9" y1="-5" x2="8.7" y2="-3.9"/>
	<line class="st7" x1="8.9" y1="-8" x2="11.2" y2="-6.7"/>
	<line class="st7" x1="11.9" y1="-11.9" x2="13.1" y2="-10.2"/>
	<line class="st7" x1="8.9" y1="-15.5" x2="11.2" y2="-14.5"/>
	<line class="st7" x1="11.2" y1="-21.5" x2="14.5" y2="-20.3"/>
	<line class="st7" x1="13.5" y1="-15" x2="16.2" y2="-14.5"/>
	<polygon class="st8" points="106.1,35.4 110.3,31 110.3,36.2 114,33.6 118.5,36.2 118.5,39.5 122,39.5 122,44.5 113.3,55.2 99,50 	
		"/>
	<polyline class="st9" points="17.7,8 54,42 93.7,46.8 95,56.8 52.3,56.8 6.9,37 	"/>
	<path class="st10" d="M92.3,47.1c0,0,2.3-3.5,6.4-6.5s4.1-4.4,4.1-4.4s0.4-5.5,2.1-3.8c1.8,1.7,1,5.6,1,5.6s-3.8,5.6-3.8,6.5
		s0.8,3.8,5.9,4.4s16.4-6.8,20.9-6.1c4.5,0.6,0,3.1,0,3.1l-3.4,2.4c0,0,3,2.6-0.1,4c-3.1,1.4,0.9,3.9-3.1,4s-1.6,1-4.3,2.6
		s-10.5,4.8-13.8,3s-11.1-5-11.1-5L92.3,47.1z"/>
	<path class="st11" d="M-37.4,163.6v15.5c0,0,13,9.9,26.7-1.4l4.4-7.6C-6.3,170.1-0.2,154.5-37.4,163.6z"/>
	<path class="st11" d="M17,163.6c-6.7-1.6-5,16.3-5,16.3s5.3,9.5,26.3,2.8c0,0,4.3,0.5,4-10.8C42,160.7,17,163.6,17,163.6z"/>
	<path class="st2" d="M-37.4,152.8l-3.9,21.4c0,0-2.7,3.8,10.9,0c13.7-3.8,0-2.3,0-2.3s10.2,4.8,16.9,4c6.7-0.9,5.1-8.5,5.1-8.5
		l0.2-13.5L-37.4,152.8z"/>
	<path class="st2" d="M11.8,154.6L8.7,176c0,0,2.5,5.2,11.6,3.1c9.1-2.1,16.8,0.8,16.8,0.8s8,0.1,6.7-3.9c-1.3-4.1-4-19.2-4-19.2
		L11.8,154.6z"/>
</g>
<g id="Слой_8" class="st0">
	<path class="st12" d="M182,185.1c0,0-99-81.3-100.5-91.9s4.7-16.4,10.8-13c6.2,3.3,9,9.7,9,9.7S96,94.2,95,91.3
		c-1-2.8-3.5-7.8-6.5-4.8s-2,7.2,0,9.1c2,1.9,96.5,84.3,96.5,84.3L182,185.1z"/>
</g>
<g id="Слой_1" class="st0">
	<path class="st13" d="M-136-14c0,0-14-3-14,13s14,13.5,14,13.5s14-2,14-10.5S-136-14-136-14z"/>
	<path class="st14" d="M-158.1,101.5c0,0-6.9,8.8-6.1,14.8c0,0-1.2,9.5,6.1,12.8c7.3,3.3,17,0.5,30.3,4.8s25.3,3.3,33.5,0
		s16.5-22.3,16.5-22.3l3.5-0.5c0,0,6.3-17.1-3.8-19.7c-10-2.6-24.1-0.9-24.1-0.9L-158.1,101.5z"/>
	<path class="st15" d="M-120.5-44.3c0,0-23-3.2-27.2,13.5c-4.2,16.7,0.7,19.9,0.7,19.9s0.2-2,4.1-2.6c3.9-0.7,4-2.5,7.9,0.2
		s9.7,7.9,10.2,8.5C-124.3-4.2-122,2-122,2s3,4.2,9.7-1c6.7-5.2,17.8-25.5,8.2-38.8S-120.5-44.3-120.5-44.3z"/>
	<path class="st15" d="M-138.3-33.5c0,0-7,7.9-3.8,19.3"/>
	<path class="st15" d="M-127.3-30.8c0,0-6,5.3-8.7,16.8"/>
	<path class="st15" d="M-115.5-26.2c0,0,0.3,13.3-11.8,18.5"/>
	<path class="st15" d="M-124.3-3.9c0,0,5.6,1.5,10.6-2.1"/>
	<path class="st13" d="M-143-8.7c0,0,13.8,9.7,8,21"/>
	<path class="st13" d="M-140.7-10.2c0,0,17.8,2.5,11.6,20.6"/>
	<path class="st16" d="M-139.9,12.5c-2.8,1.1-7.5,4.1-9.1,5.3c-0.5,0.4-1,0.8-1.4,1.1c-6.2,5.1-13.1,12.7-13.6,21.6
		c-1.2,19.3,5.2,42.7,5.9,45.5c0.1,0.2,0.1,0.4,0.1,0.6c0,1.8-0.1,11.7-1,13.7c-1,2.2,34.9,16.2,50.4,2.1c0.1-0.1,0.1-0.1,0.2-0.2
		l7.2-7.7c0.6-0.7,0.7-1.7,0.2-2.5l-2.6-4c-0.6-0.9-0.4-2.2,0.6-2.8c1-0.7,1.8-1.6,0.8-2.6c-1.4-1.2-0.4-2.1,0.3-2.6
		c0.5-0.3,0.8-0.8,0.9-1.4c0.2-1.2,0.2-2.9-0.9-2.7c-1.8,0.3,2-2.5,1.9-3.5s-0.9-4.3-2.4-6.5c-1.1-1.7,0.8-1.5,1.8-1.4
		c0.4,0.1,0.8,0,1.2-0.2c2.1-1,8.9-4.8,6.8-10.5c-2.5-6.8-7.3-11-9.5-17.5s-1.1-15.2-6.8-18.5l-4.6-2.6c-0.6-0.4-1.5-0.4-2.1,0
		c-2.4,1.4-8.2,4.8-10.5,5.4c-3,0.8-7.2,1.9-7.2,0.9s-1.4-2.3-1-4.7c0.1-0.7,0.3-1.4,0.4-2c0.3-1.3-0.7-2.5-2-2.5
		c-0.9,0-1.8,0-2.1,0.2c-0.1,0-0.2,0.1-0.2,0.1C-139.5,12.9-139.8,12.4-139.9,12.5"/>
	<path class="st17" d="M-150-1"/>
	<path class="st18" d="M-100.4-25.1c0,0,0.4,9.2,3.3,10.9s-1.6,9.5-1.6,9.5s1.6,6.4-0.7,7.4s-3.1,0-3.1,0s-1.3,3-3.4,1.8
		s-8.9,10.4-8.9,10.4s-25,16.9-18.7-2.1c0,0,10.1-2.4,12.2-10.1c0,0,1.8,1.3,7.7-0.7C-107.8-0.3-100.3-22.1-100.4-25.1z"/>
	<path class="st16" d="M-159.4,28.4c0,0-19.1,26.3-16.4,37.1c0,0-2.2,2.3-0.3,4.7c1.9,2.3,4.8,1.3,4.8,1.3s4.4,0.8,7.1,0.2
		s2.7-0.6,2.7-0.6S-168.3,40.6-159.4,28.4z"/>
	<path class="st16" d="M-154.2,91.3c0,0,0.6,6.3-1.2,8.5"/>
	<path class="st16" d="M-150.8,93.2c0,0-0.2,3.2-2,6.7"/>
	<path class="st16" d="M-146.5,94.3c0,0,1,4.3-2.2,7.2"/>
	<path class="st16" d="M-143,95.6c0,0,0.3,3.6-0.8,6.8"/>
	<path class="st16" d="M-138.3,96.5c0,0,1.3,5.2-2.4,7.2"/>
	<path class="st16" d="M-132.3,96.5c0,0,2.2,4.7,0,7.2"/>
	<path class="st16" d="M-102.1,75.8c0,0-14.8-0.8-16.9-5.2"/>
	<path class="st16" d="M-103,81.5c0,0-6-1.5-9.3-1.3"/>
	<path class="st16" d="M-148.7,56.8c0,0,7.2,12.7,3.3,26.7"/>
	<path class="st16" d="M-106.8,20.3c0,0,20.7,11.2,35,34.2c0,0,20.8,0.7,35.9,9h7.6v9.8l-8.8-0.8c0,0-33.5,1.6-38.7-2.7
		c-5.2-4.3-28.9-5.2-37.8-23.7"/>
	<path class="st19" d="M-28.5,63.4l4-0.9c0,0,4.3-2.1,5.9-5.2c0,0,1.8-1.3,4.7-3s3.1-2.8,3-1.6c-0.1,1.2,0,1.9,0,1.9s0.8,0.9,0,1.6
		c-0.8,0.7-6.1,4-5.1,4.4c1,0.4,1.8,2.4,6.5,1.2s12.8-2.8,12.8-2.8s2.5,0.7-1.6,2.5s-9,2.7-9,2.7s-1.2,1.6-0.3,1.6s14.9,0,14.9,0
		s3,1.2,0,2.7S-8,68.7-7.3,69.8s-2.5,1.5-0.6,2.3c1.9,0.8,12.7,1.5,12.7,1.5s2.5,1.9-1.2,2.4s-12.4-1.6-12.4-1.6s-1.8,1.2-0.4,1.7
		c1.3,0.5,9.7,2.7,9.7,2.7s1.9,3.8-1.9,2.4S-12.1,77-12.1,77s-13,0-16.4-4.9S-28.5,63.4-28.5,63.4z"/>
	<path class="st20" d="M-132.3,156.5c0,0-4.9-2.2-6,5.2c-1,7.3,0,17.4,0,17.4s11.7,12.2,20-2.1c0,0,17.6-3.3,12.3-17l-6.3-4.5
		l-12.5,4.9L-132.3,156.5z"/>
	<path class="st21" d="M-132.3,149.3l0.5,11.1c0,0,3.1,3,7,0s2.9-10.7,2.9-10.7L-132.3,149.3z"/>
	<path class="st21" d="M-100.4,150.8c0,0-1.5,14.2-1.7,10.8c0,0,3.9,7.5,9.7,1.9l1.7-12.8H-100.4z"/>
	<path class="st20" d="M-102.1,158.2c0,0-4.2-3.9-5.6,5.3c-1.4,9.2,0,15.5,0,15.5s16.3,8.1,21.3,0c5-8.1,3.7-17.4,3.7-17.4
		s-5.9-8.2-9.8-3.4C-96.3,163-102.1,158.2-102.1,158.2z"/>
</g>
<g id="Слой_7" class="st0">
	<path class="st1" d="M71.5,148.1c0,0-10-99.2-22.5-119.6S21.6,3.5,20.3,10.5c-1.3,7,14.9,13.9,14.9,13.9S54,51,63,138.8"/>
	<path class="st1" d="M-211.9,136.6c0,0,2.4-58.6-20.6-99.1S-251,1.8-251,1.8s52,24.3,44,134.7"/>
	<polygon class="st21" points="-242.5,28.4 -237.5,46.8 61,37.6 56.5,20.3 	"/>
	<path class="st22" d="M71.5,93.2c-3.5-0.7-296-3.3-296-3.3l4.5,11.6l291.5,11.7V93.2z"/>
</g>
</svg>
