<?xml version="1.0" encoding="utf-8"?>
<!-- Generator: Adobe Illustrator 21.0.1, SVG Export Plug-In . SVG Version: 6.00 Build 0)  -->
<svg version="1.1" xmlns="http://www.w3.org/2000/svg" xmlns:xlink="http://www.w3.org/1999/xlink" x="0px" y="0px"
	 viewBox="0 0 133.3 197.3" style="enable-background:new 0 0 133.3 197.3;" xml:space="preserve">
<style type="text/css">
	.st0{display:none;}
	.st1{display:inline;fill:#956A42;stroke:#000000;stroke-miterlimit:10;}
	.st2{fill:#476681;stroke:#000000;stroke-miterlimit:10;}
	.st3{fill:none;stroke:#000000;stroke-miterlimit:10;}
	.st4{fill:#002E20;stroke:#000000;stroke-miterlimit:10;}
	.st5{display:inline;fill:none;stroke:#000000;stroke-miterlimit:10;}
	.st6{display:inline;fill:#FBB89A;stroke:#000000;stroke-miterlimit:10;}
	.st7{display:none;fill:#6A8377;stroke:#000000;stroke-miterlimit:10;}
	.st8{display:none;fill:none;stroke:#000000;stroke-miterlimit:10;}
	.st9{display:none;fill:#C26A42;stroke:#000000;stroke-miterlimit:10;}
	.st10{display:none;fill:#002E20;stroke:#000000;stroke-miterlimit:10;}
	.st11{display:none;fill:#FBB89A;stroke:#000000;stroke-miterlimit:10;}
	.st12{fill:#151A16;stroke:#000000;stroke-miterlimit:10;}
	.st13{display:inline;fill:#472A3B;stroke:#000000;stroke-miterlimit:10;}
	.st14{fill:#C0C0AC;stroke:#000000;stroke-miterlimit:10;}
	.st15{fill:#6A8377;stroke:#000000;stroke-miterlimit:10;}
	.st16{fill:#A9A6A7;stroke:#000000;stroke-miterlimit:10;}
	.st17{display:inline;fill:#564338;stroke:#000000;stroke-miterlimit:10;}
	.st18{display:inline;fill:#FFFFFF;stroke:#000000;stroke-miterlimit:10;}
	.st19{fill:#E8C0A9;stroke:#000000;stroke-miterlimit:10;}
	.st20{display:inline;fill:#E8C0A9;stroke:#000000;stroke-miterlimit:10;}
	.st21{display:inline;fill:#567286;stroke:#000000;stroke-miterlimit:10;}
	.st22{display:inline;fill:#684F42;stroke:#000000;stroke-miterlimit:10;}
	.st23{display:inline;fill:#954836;stroke:#000000;stroke-miterlimit:10;}
</style>
<g id="Слой_6" class="st0">
	<path class="st1" d="M-1.8,119.2l149.7-2.4l27-0.4c0,0,6-2.7,8.5,4.6c2.5,7.3-43,43.3-43,43.3s-263-9.5-265.5-10s-19,0-19,0V143
		c0,0-5-2.8,2.5-5.3s53.4-16.8,53.4-16.8"/>
	<path class="st1" d="M-144,154.2v52c0,0,4,5,12,0s2-52.2,2-52.2l2.2-6.8"/>
	<path class="st1" d="M-88.2,155.7v25.4c0,0-2.1,6.5,4.8,5.5c6.9-1,4.7-8.9,4.7-8.9v-19.6l0.6-2.4H-88.2z"/>
	<path class="st1" d="M121.5,164.2c0,0-1.5,43,0,48s14.5,4.5,14.5,4.5l11.5-12v-46.2C147.5,158.5,143.5,163.2,121.5,164.2z"/>
	<path class="st1" d="M183.5,120.9v43.3c0,0-3,10.7-8.5,7.1c-5.5-3.6-4-33.5-4-33.5S186,124.8,183.5,120.9z"/>
</g>
<g id="Слой_2">
	<path class="st2" d="M103.3,122.7l6-4.3h11c0,0,15.7-23.3,1.7-27.2c-14-3.8-21-2.7-21-2.7l-8.8,2.7c0,0-19.8,13.2-1.3,20.2
		S103.3,122.7,103.3,122.7z"/>
	<g id="Слой_5">
		<path class="st3" d="M89.1-28.5h-15c0,0-3.9,0.2-1.5,2.5s0.8,1.6,0.8,1.6"/>
		<path class="st3" d="M38.6,8c0,0,7.7,2.5,14.2,1.7"/>
		<path class="st3" d="M37.1,3.8"/>
		<path class="st4" d="M37.1,3.8c0,0-16.1-1.5-24.4,14.4S2,66,5,89.2s4,40.5,4,40.5s3.5,13.3,25.7,10.7c0,0,28.8,7.7,46.5-3
			s22.1-14.7,22.1-14.7s3.3-20.7-5.7-23.7S87,62.3,89.5,45.7c2.5-16.7,12.8-21,4.2-30S38.6,4.1,38.6,4.1L37.1,3.8z"/>
	</g>
	<g id="Слой_3" class="st0">
		<path class="st5" d="M78.1-27.4c0,0-2.7-0.5-3,1.5s-1.7,1.6-1.7,1.6l0.8-4.9l10.5-0.9l4.4-0.4v5.7h-4.8L78.1-27.4z"/>
		<path class="st6" d="M84.7-28.3c1,0.2,5,1.3,5.7,6.1c0.7,4.8-2.8,12.3-2.8,12.3s3,1.2,1.5,4.2s-4.3,2.5-4.3,2.5s0.8,4.2-1,5.4
			c-1.8,1.2-3.5,3.7-3.5,3.7s-7.8,2.7-8.3,2.7s-8.7,2.8-10.8,8.5c-2.2,5.7-28.8,4.5-26.2-4s2.7-6,2.7-6l2-29.1c0,0,7.5-30.4,25-25.3
			S84.7-28.3,84.7-28.3z"/>
	</g>
	<g id="Слой_4" class="st0">
	</g>
	<path class="st7" d="M58.1-51.8c-1,0-5.3-1.5-11.3,1.5S38.2-48,35.1-37.8c-3.2,10.2-1.3,34.5-1.3,34.5l2.5-10.5L37.9,2l3.2-12
		c0,0,0.8,14.5,0.8,13.8s3.7-12.3,3.7-12.3l2.1,13l4.3-13l4.2,14.2l1.8-7.2c0,0-0.8,6.9,0,6.4c0.8-0.5,2.8-6.4,2.8-6.4l0.8,7.2
		l3-14.2l2,12.3l2.5-9.6L71.6,2v-9.5L72.9,2l3.7-8.8L78.1,2l3.5-10.5v6.9l1.5-17.6c0,0-1.5,5-3.8,0.3c-2.3-4.7-1.2-16,1.8-11.8
		s2,3,2,3l0.2-8.5l1.5,6.2c0,0,4-20.8-6.8-22.2C67.1-53.6,58.1-51.8,58.1-51.8z"/>
	<path class="st7" d="M42.7-36.1l-1,9l4.3-9c0,0-0.3,21.7,0,20.5c0.3-1.2,5.5-13.3,5.5-13.3v10.2c0,0,5-12.8,4.8-11.8
		s1.2,9.6,1.2,9.6l1.8-7.1l1.4,15.5l3-11v7.7l2.3-7.6"/>
	<line class="st8" x1="82.9" y1="2.7" x2="84.7" y2="3.8"/>
	<line class="st8" x1="84.9" y1="-0.3" x2="87.2" y2="1"/>
	<line class="st8" x1="87.9" y1="-4.3" x2="89.1" y2="-2.5"/>
	<line class="st8" x1="84.9" y1="-7.8" x2="87.2" y2="-6.8"/>
	<line class="st8" x1="87.2" y1="-13.9" x2="90.5" y2="-12.6"/>
	<line class="st8" x1="89.5" y1="-7.3" x2="92.2" y2="-6.8"/>
	<polygon class="st9" points="182.1,43 186.3,38.7 186.3,43.8 190,41.3 194.5,43.8 194.5,47.2 198,47.2 198,52.1 189.3,62.8 
		175,57.7 	"/>
	<polyline class="st10" points="93.7,15.7 130,49.7 169.7,54.5 171,64.5 128.3,64.5 82.9,44.7 	"/>
	<path class="st11" d="M168.3,54.8c0,0,2.3-3.5,6.4-6.5s4.1-4.4,4.1-4.4s0.4-5.5,2.1-3.8c1.8,1.7,1,5.6,1,5.6s-3.8,5.6-3.8,6.5
		s0.8,3.8,5.9,4.4s16.4-6.8,20.9-6.1s0,3.1,0,3.1l-3.4,2.4c0,0,3,2.6-0.1,4s0.9,3.9-3.1,4c-4,0.1-1.6,1-4.3,2.6s-10.5,4.8-13.8,3
		s-11.1-5-11.1-5L168.3,54.8z"/>
	<path class="st12" d="M38.6,171.2v15.5c0,0,13,9.9,26.7-1.4l4.4-7.6C69.7,177.8,75.8,162.2,38.6,171.2z"/>
	<path class="st12" d="M93,171.2c-6.7-1.6-5,16.3-5,16.3s5.3,9.5,26.3,2.8c0,0,4.3,0.5,4-10.8C118,168.3,93,171.2,93,171.2z"/>
	<path class="st2" d="M38.6,160.5l-3.9,21.4c0,0-2.7,3.8,10.9,0s0-2.3,0-2.3s10.2,4.8,16.9,4c6.7-0.9,5.1-8.5,5.1-8.5l0.2-13.5
		L38.6,160.5z"/>
	<path class="st2" d="M87.8,162.3l-3.1,21.4c0,0,2.5,5.2,11.6,3.1c9.1-2.1,16.8,0.8,16.8,0.8s8,0.1,6.7-3.9c-1.3-4.1-4-19.2-4-19.2
		L87.8,162.3z"/>
</g>
<g id="Слой_8" class="st0">
	<path class="st13" d="M258,192.8c0,0-99-81.3-100.5-91.9s4.7-16.4,10.8-13c6.2,3.3,9,9.7,9,9.7s-5.3,4.3-6.3,1.4s-3.5-7.8-6.5-4.8
		s-2,7.2,0,9.1s96.5,84.3,96.5,84.3L258,192.8z"/>
</g>
<g id="Слой_1" class="st0">
	<path class="st14" d="M-60-6.3c0,0-14-3-14,13s14,13.5,14,13.5s14-2,14-10.5S-60-6.3-60-6.3z"/>
	<path class="st15" d="M-82.1,109.2c0,0-6.9,8.8-6.1,14.8c0,0-1.2,9.5,6.1,12.8c7.3,3.3,17,0.5,30.3,4.8s25.3,3.3,33.5,0
		s16.5-22.3,16.5-22.3l3.5-0.5c0,0,6.3-17.1-3.8-19.7s-24.1-0.9-24.1-0.9L-82.1,109.2z"/>
	<path class="st16" d="M-44.5-36.7c0,0-23-3.2-27.2,13.5c-4.2,16.7,0.7,19.9,0.7,19.9s0.2-2,4.1-2.6s4-2.5,7.9,0.2s9.7,7.9,10.2,8.5
		c0.4,0.6,2.7,6.8,2.7,6.8s3,4.2,9.7-1s17.8-25.5,8.2-38.8S-44.5-36.7-44.5-36.7z"/>
	<path class="st16" d="M-62.3-25.8c0,0-7,7.9-3.8,19.3"/>
	<path class="st16" d="M-51.3-23.2c0,0-6,5.3-8.7,16.8"/>
	<path class="st16" d="M-39.5-18.5c0,0,0.3,13.3-11.8,18.5"/>
	<path class="st16" d="M-48.3,3.8c0,0,5.6,1.5,10.6-2.1"/>
	<path class="st14" d="M-67-1c0,0,13.8,9.7,8,21"/>
	<path class="st14" d="M-64.7-2.5c0,0,17.8,2.5,11.6,20.6"/>
	<path class="st17" d="M-63.9,20.2c-2.8,1.1-7.5,4.1-9.1,5.3c-0.5,0.4-1,0.8-1.4,1.1c-6.2,5.1-13.1,12.7-13.6,21.6
		c-1.2,19.3,5.2,42.7,5.9,45.5c0.1,0.2,0.1,0.4,0.1,0.6c0,1.8-0.1,11.7-1,13.7c-1,2.2,34.9,16.2,50.4,2.1c0.1-0.1,0.1-0.1,0.2-0.2
		l7.2-7.7c0.6-0.7,0.7-1.7,0.2-2.5l-2.6-4c-0.6-0.9-0.4-2.2,0.6-2.8c1-0.7,1.8-1.6,0.8-2.6c-1.4-1.2-0.4-2.1,0.3-2.6
		c0.5-0.3,0.8-0.8,0.9-1.4c0.2-1.2,0.2-2.9-0.9-2.7c-1.8,0.3,2-2.5,1.9-3.5s-0.9-4.3-2.4-6.5c-1.1-1.7,0.8-1.5,1.8-1.4
		c0.4,0.1,0.8,0,1.2-0.2c2.1-1,8.9-4.8,6.8-10.5c-2.5-6.8-7.3-11-9.5-17.5s-1.1-15.3-6.8-18.5l-4.6-2.6c-0.6-0.4-1.5-0.4-2.1,0
		c-2.4,1.4-8.2,4.8-10.5,5.4c-3,0.8-7.2,1.9-7.2,0.9c0-1-1.4-2.3-1-4.7c0.1-0.7,0.3-1.4,0.4-2c0.3-1.3-0.7-2.5-2-2.5
		c-0.9,0-1.8,0-2.1,0.2c-0.1,0-0.2,0.1-0.2,0.1C-63.5,20.5-63.8,20-63.9,20.2"/>
	<path class="st18" d="M-74,6.7"/>
	<path class="st19" d="M-24.4-17.5c0,0,0.4,9.2,3.3,10.9s-1.6,9.5-1.6,9.5s1.6,6.4-0.7,7.4s-3.1,0-3.1,0s-1.3,3-3.4,1.8
		s-8.9,10.4-8.9,10.4s-25,16.9-18.7-2.1c0,0,10.1-2.4,12.2-10.1c0,0,1.8,1.3,7.7-0.7S-24.3-14.5-24.4-17.5z"/>
	<path class="st17" d="M-83.4,36.1c0,0-19.1,26.3-16.4,37.1c0,0-2.2,2.3-0.3,4.7c1.9,2.3,4.8,1.3,4.8,1.3s4.4,0.8,7.1,0.2
		s2.7-0.6,2.7-0.6S-92.3,48.3-83.4,36.1z"/>
	<path class="st17" d="M-78.2,99c0,0,0.6,6.3-1.2,8.5"/>
	<path class="st17" d="M-74.8,100.8c0,0-0.2,3.2-2,6.7"/>
	<path class="st17" d="M-70.5,102c0,0,1,4.3-2.2,7.2"/>
	<path class="st17" d="M-67,103.3c0,0,0.3,3.6-0.8,6.8"/>
	<path class="st17" d="M-62.3,104.2c0,0,1.3,5.2-2.4,7.2"/>
	<path class="st17" d="M-56.3,104.2c0,0,2.2,4.7,0,7.2"/>
	<path class="st17" d="M-26.1,83.5c0,0-14.8-0.8-16.9-5.2"/>
	<path class="st17" d="M-27,89.2c0,0-6-1.5-9.3-1.3"/>
	<path class="st17" d="M-72.7,64.5c0,0,7.2,12.7,3.3,26.7"/>
	<path class="st17" d="M-30.8,28c0,0,20.7,11.2,35,34.2c0,0,20.8,0.7,35.9,9h7.6v9.8l-8.8-0.8c0,0-33.5,1.6-38.7-2.7
		c-5.2-4.3-28.9-5.2-37.8-23.7"/>
	<path class="st20" d="M47.5,71.1l4-0.9c0,0,4.3-2.1,5.9-5.2c0,0,1.8-1.3,4.7-3c3-1.6,3.1-2.8,3-1.6c-0.1,1.2,0,1.9,0,1.9
		s0.8,0.9,0,1.6c-0.8,0.7-6.1,4-5.1,4.4c1,0.4,1.8,2.4,6.5,1.2s12.8-2.8,12.8-2.8s2.5,0.7-1.6,2.5c-4.1,1.8-9,2.7-9,2.7
		s-1.2,1.6-0.3,1.6s14.9,0,14.9,0s3,1.2,0,2.7c-3,1.5-15.4,0.1-14.6,1.2c0.7,1-2.5,1.5-0.6,2.3c1.9,0.8,12.7,1.5,12.7,1.5
		s2.5,1.9-1.2,2.4S67.3,82,67.3,82s-1.8,1.2-0.4,1.7c1.3,0.5,9.7,2.7,9.7,2.7s1.9,3.8-1.9,2.4c-3.8-1.5-10.8-4.1-10.8-4.1
		s-13,0-16.4-4.9C44.1,74.8,47.5,71.1,47.5,71.1z"/>
	<path class="st21" d="M-56.3,164.2c0,0-4.9-2.2-6,5.2c-1,7.3,0,17.4,0,17.4s11.7,12.2,20-2.1c0,0,17.6-3.3,12.3-17l-6.3-4.5
		l-12.5,4.9L-56.3,164.2z"/>
	<path class="st22" d="M-56.3,156.9l0.5,11.1c0,0,3.1,3,7,0s2.9-10.7,2.9-10.7L-56.3,156.9z"/>
	<path class="st22" d="M-24.4,158.5c0,0-1.5,14.2-1.7,10.8c0,0,3.9,7.5,9.7,1.9l1.7-12.8H-24.4z"/>
	<path class="st21" d="M-26.1,165.9c0,0-4.2-3.9-5.6,5.3c-1.4,9.2,0,15.5,0,15.5s16.3,8.1,21.3,0c5-8.1,3.7-17.4,3.7-17.4
		s-5.9-8.2-9.8-3.4C-20.3,170.7-26.1,165.9-26.1,165.9z"/>
</g>
<g id="Слой_7" class="st0">
	<path class="st1" d="M147.5,155.7c0,0-10-99.2-22.5-119.6S97.6,11.1,96.3,18.1C95,25.2,111.2,32,111.2,32S130,58.7,139,146.4"/>
	<path class="st1" d="M-135.9,144.2c0,0,2.4-58.6-20.6-99.1S-175,9.5-175,9.5s52,24.3,44,134.7"/>
	<polygon class="st22" points="-166.5,36.1 -161.5,54.5 137,45.3 132.5,28 	"/>
	<path class="st23" d="M147.5,100.8c-3.5-0.7-296-3.3-296-3.3l4.5,11.6l291.5,11.7V100.8z"/>
</g>
</svg>
