<?xml version="1.0" encoding="utf-8"?>
<!-- Generator: Adobe Illustrator 21.0.1, SVG Export Plug-In . SVG Version: 6.00 Build 0)  -->
<svg version="1.1" xmlns="http://www.w3.org/2000/svg" xmlns:xlink="http://www.w3.org/1999/xlink" x="0px" y="0px"
	 viewBox="0 0 94 60" style="enable-background:new 0 0 94 60;" xml:space="preserve">
<style type="text/css">
	.st0{fill:#FFBD56;stroke:#0A1700;stroke-miterlimit:10;}
	.st1{fill:#980056;stroke:#0A1700;stroke-miterlimit:10;}
	.st2{fill:#FFD81F;stroke:#0A1700;stroke-miterlimit:10;}
	.st3{fill:#0A1700;}
	.st4{fill:#FFD856;}
	.st5{fill:#B8D856;}
</style>
<g id="Слой_1">
	<path class="st0" d="M13.5,12.5c0,0,0-10,13-10s12,10,12,10s-1,19,14,19s23,7,25,12s9,3,9,3s8,4,0,4s4,3,4,3s3,2-5,3s-56,0-64,0
		s-16-15-5-21s8-12,8-12s-9,1-10-5S13.5,12.5,13.5,12.5z"/>
</g>
<g id="Слой_2">
	<path class="st1" d="M21.5,13.5c0,0,4,3,0,6s-17,1-17,1s-5-2,2-3s10,0,10,0s-20,0-14-2S21.5,13.5,21.5,13.5z"/>
	<path class="st2" d="M43.5,38.5c0,0,21-1,20,5s-20,6-20,6"/>
	<g>
		<g>
			<path class="st3" d="M28.7,12.8c1.9,0,1.9-3,0-3C26.7,9.8,26.7,12.8,28.7,12.8L28.7,12.8z"/>
		</g>
	</g>
	<g>
		<g>
			<path class="st4" d="M44.3,48.8c1.9,0,1.9-3,0-3C42.4,45.8,42.4,48.8,44.3,48.8L44.3,48.8z"/>
		</g>
	</g>
	<g>
		<g>
			<path class="st4" d="M45.3,46.8c1.9,0,1.9-3,0-3C43.4,43.8,43.4,46.8,45.3,46.8L45.3,46.8z"/>
		</g>
	</g>
	<g>
		<g>
			<path class="st4" d="M46.3,45.2c1.9,0,1.9-3,0-3C44.4,42.2,44.4,45.2,46.3,45.2L46.3,45.2z"/>
		</g>
	</g>
	<g>
		<g>
			<path class="st4" d="M46.7,44.5c1.9,0,1.9-3,0-3C44.7,41.5,44.7,44.5,46.7,44.5L46.7,44.5z"/>
		</g>
	</g>
	<g>
		<g>
			<path class="st5" d="M20.3,54.2c1.9,0,1.9-3,0-3C18.4,51.2,18.4,54.2,20.3,54.2L20.3,54.2z"/>
		</g>
	</g>
	<g>
		<g>
			<path class="st5" d="M17.7,46.8c1.9,0,1.9-3,0-3C15.7,43.8,15.7,46.8,17.7,46.8L17.7,46.8z"/>
		</g>
	</g>
	<g>
		<g>
			<path class="st5" d="M23,43.8c1.9,0,1.9-3,0-3C21.1,40.8,21.1,43.8,23,43.8L23,43.8z"/>
		</g>
	</g>
	<g>
		<g>
			<path class="st5" d="M27.3,39.2c1.9,0,1.9-3,0-3C25.4,36.2,25.4,39.2,27.3,39.2L27.3,39.2z"/>
		</g>
	</g>
	<g>
		<g>
			<path class="st5" d="M32.7,46.8c1.9,0,1.9-3,0-3C30.7,43.8,30.7,46.8,32.7,46.8L32.7,46.8z"/>
		</g>
	</g>
	<g>
		<g>
			<path class="st5" d="M26,48.2c1.9,0,1.9-3,0-3C24.1,45.2,24.1,48.2,26,48.2L26,48.2z"/>
		</g>
	</g>
	<g>
		<g>
			<path class="st5" d="M30,52.8c1.9,0,1.9-3,0-3C28.1,49.8,28.1,52.8,30,52.8L30,52.8z"/>
		</g>
	</g>
	<g>
		<g>
			<path class="st5" d="M36.3,52.2c1.9,0,1.9-3,0-3C34.4,49.2,34.4,52.2,36.3,52.2L36.3,52.2z"/>
		</g>
	</g>
	<g>
		<g>
			<path class="st5" d="M36.3,35.5c1.9,0,1.9-3,0-3C34.4,32.5,34.4,35.5,36.3,35.5L36.3,35.5z"/>
		</g>
	</g>
	<g>
		<g>
			<path class="st5" d="M37.3,41.8c1.9,0,1.9-3,0-3C35.4,38.8,35.4,41.8,37.3,41.8L37.3,41.8z"/>
		</g>
	</g>
	<g>
		<g>
			<path class="st5" d="M58,53.8c1.9,0,1.9-3,0-3C56.1,50.8,56.1,53.8,58,53.8L58,53.8z"/>
		</g>
	</g>
	<g>
		<g>
			<path class="st5" d="M66.7,52.5c1.9,0,1.9-3,0-3C64.7,49.5,64.7,52.5,66.7,52.5L66.7,52.5z"/>
		</g>
	</g>
	<g>
		<g>
			<path class="st5" d="M69.7,47.5c1.9,0,1.9-3,0-3C67.7,44.5,67.7,47.5,69.7,47.5L69.7,47.5z"/>
		</g>
	</g>
	<g>
		<g>
			<path class="st5" d="M71.7,54.8c1.9,0,1.9-3,0-3C69.7,51.8,69.7,54.8,71.7,54.8L71.7,54.8z"/>
		</g>
	</g>
</g>
</svg>
