<?xml version="1.0" encoding="utf-8"?>
<!-- Generator: Adobe Illustrator 21.0.1, SVG Export Plug-In . SVG Version: 6.00 Build 0)  -->
<svg version="1.1" id="Слой_1" xmlns="http://www.w3.org/2000/svg" xmlns:xlink="http://www.w3.org/1999/xlink" x="0px" y="0px"
	 viewBox="0 0 18.5 28" style="enable-background:new 0 0 18.5 28;" xml:space="preserve">
<style type="text/css">
	.st0{fill:#FFA777;stroke:#000000;stroke-miterlimit:10;}
	.st1{fill:#FFFFFF;stroke:#000000;stroke-miterlimit:10;}
</style>
<path class="st0" d="M11.9,4.1c0,0-12-1.3-11.9,10.9c0,0,1.5,8.8,11,8.6c0,0,1.9-0.3,3.3-1.6c0.2-0.2,0.4-0.5,0.6-0.8
	c0,0-3.9-4.8,2.2-4.3l1.4-2c0,0-6.1,1.1-3.6-4.1c0,0-6.9-1.9-0.1-4.9L11.9,4.1z"/>
<line class="st1" x1="5.6" y1="8.6" x2="5.6" y2="9.4"/>
<line class="st1" x1="6.6" y1="13.9" x2="6.6" y2="14.6"/>
<line class="st1" x1="9.3" y1="17.9" x2="9.3" y2="18.6"/>
<line class="st1" x1="11.3" y1="13" x2="11.3" y2="13.9"/>
<line class="st1" x1="3.3" y1="11.9" x2="3.3" y2="13"/>
<line class="st1" x1="4.8" y1="17.3" x2="4.8" y2="17.9"/>
<path class="st1" d="M15.6,6.4l-2.2,4l1.4,0.5c0,0,1.5,1.9,1.4,3C16.1,15,16.1,15,16.1,15"/>
<path class="st1" d="M15.5,17c0,0-0.5,2,0,2.6c0.5,0.6-0.6,1.6-0.6,1.6"/>
</svg>
