<?xml version="1.0" encoding="utf-8"?>
<!-- Generator: Adobe Illustrator 21.0.1, SVG Export Plug-In . SVG Version: 6.00 Build 0)  -->
<svg version="1.1" xmlns="http://www.w3.org/2000/svg" xmlns:xlink="http://www.w3.org/1999/xlink" x="0px" y="0px"
	 viewBox="0 0 474 237.8" style="enable-background:new 0 0 474 237.8;" xml:space="preserve">
<style type="text/css">
	.st0{fill:#9C607C;stroke:#000000;stroke-miterlimit:10;}
	.st1{fill:#C78B65;stroke:#705900;stroke-miterlimit:10;}
	.st2{fill:#FFFFFF;stroke:#000000;stroke-miterlimit:10;}
	.st3{fill:#393945;stroke:#000000;stroke-miterlimit:10;}
	.st4{fill:#2929FF;stroke:#000000;stroke-miterlimit:10;}
	.st5{fill:#724F36;stroke:#000000;stroke-miterlimit:10;}
	.st6{fill:#FF2E20;stroke:#000000;stroke-miterlimit:10;}
</style>
<g id="Слой_4">
</g>
<g id="Слой_2">
	<path class="st0" d="M126.1,153.7c0,0-1.3-73.3,57.8-77.8c0,0,28.5-3,34-25h37.5h131v6.5l-130.1-0.5v96.8H126.1z"/>
	<rect x="371.1" y="57.4" class="st0" width="6.3" height="96.4"/>
	<polygon class="st1" points="225.4,50.9 225.4,25.4 221.4,25.4 221.4,17.9 225.4,17.9 225.4,6.4 230.9,6.4 230.9,18.9 230.9,50.9 	
		"/>
	<path class="st2" d="M206.8,79.9c0,0-51-4-53,28.5h53V79.9z"/>
	<path class="st3" d="M393,208.3c0,0,69.4,8.1,72.9-44.9h-59.5C406.4,163.4,411,177.2,393,208.3"/>
	<g id="Слой_3">
	</g>
</g>
<g id="Слой_1">
	<path class="st1" d="M404.5,153.7H108.6c0.6,2.2,0.4,4.6-0.6,6.6c-0.9,2.7-2.6,5.1-5.1,6.5c-3.5,1.9-7.5,1-10.4-1.3
		c-1.2-0.5-2-1.5-2.5-2.6c-2.1-2.5-3.2-5.7-2.4-9c0-0.1,0.1-0.2,0.1-0.2H7.4c0,0-1.4,46.4,13,65.2s14.5,18.8,14.5,18.8h336.2
		C371.1,237.8,416.1,198.7,404.5,153.7z"/>
	<circle class="st4" cx="63.6" cy="184.2" r="17.8"/>
	<circle class="st4" cx="128.6" cy="184.2" r="17.8"/>
	<circle class="st4" cx="189.1" cy="184.2" r="17.8"/>
	<circle class="st4" cx="248.6" cy="184.2" r="17.8"/>
	<circle class="st4" cx="310.1" cy="184.2" r="17.8"/>
	<circle class="st4" cx="371.1" cy="184.2" r="17.8"/>
	<path class="st5" d="M146.4,114.9H7.3v6.5h5.1v32.3h75.2c0.8-2.7,2.9-5.2,5.4-6.5c2.3-1.2,4.7-1.5,7-1.1c1.9,0.1,3.9,0.8,5.6,2.4
		c1.4,1.3,2.5,3.2,2.9,5.2h33.3l-0.5-32.8h5V114.9z"/>
	<polygon class="st5" points="282.9,153.7 282.9,120.9 273.9,120.9 273.9,114.9 399.4,114.9 399.4,120.9 393.4,121.4 392.9,153.7 	
		"/>
	<polygon class="st3" points="143.9,129.7 143.9,132.7 143.9,143.2 167.4,143.2 167.4,153.6 209.9,153.6 209.9,111.7 167.4,111.7 
		167.9,125.7 143.9,125.7 	"/>
	<polygon class="st3" points="221.4,153.7 221.4,111.9 262.9,111.9 262.9,127.4 262.9,132.8 280.9,132.8 280.9,142.4 280.9,147.4 
		262.4,147.4 261.9,153.7 	"/>
	<rect x="22.9" y="122.4" class="st2" width="6" height="23"/>
	<rect x="37.4" y="122.4" class="st2" width="6" height="23"/>
	<rect x="53.9" y="122.4" class="st2" width="7.3" height="23"/>
	<rect x="69.4" y="122.4" class="st2" width="7.5" height="23"/>
	<rect x="85.4" y="122.4" class="st2" width="6" height="23"/>
	<rect x="99.4" y="122.4" class="st2" width="6" height="23"/>
	<rect x="114.4" y="122.4" class="st2" width="5" height="23"/>
	<rect x="126.1" y="122.4" class="st2" width="4.8" height="23"/>
	<rect x="302.4" y="122.4" class="st2" width="3.5" height="23"/>
	<rect x="318.9" y="122.4" class="st2" width="3.5" height="20.5"/>
	<rect x="334.4" y="122.4" class="st2" width="4.5" height="20.5"/>
	<rect x="350.4" y="122.4" class="st2" width="3" height="20.5"/>
	<rect x="363.4" y="122.4" class="st2" width="4.5" height="20.5"/>
	<rect x="377.4" y="122.4" class="st2" width="4" height="20.5"/>
</g>
<g id="Слой_5">
	<path class="st6" d="M97.8,128.4c-15.7,0-28.4,12.7-28.4,28.4s12.7,28.4,28.4,28.4s28.4-12.7,28.4-28.4S113.4,128.4,97.8,128.4z
		 M108,160.4c-0.9,2.7-2.6,5.1-5.1,6.5c-3.5,1.9-7.5,1-10.4-1.3c-1.2-0.5-2-1.5-2.5-2.6c-2.1-2.5-3.2-5.7-2.4-9
		c0.7-2.9,2.9-5.4,5.4-6.7c2.3-1.2,4.7-1.5,7-1.1c1.9,0.1,3.9,0.8,5.6,2.4C108.7,151.4,109.9,156.6,108,160.4z"/>
	<path class="st1" d="M87.5,154l21.1-0.2c0,0-2.2,16.4-9.2,14.1S86.2,167.1,87.5,154z"/>
</g>
</svg>
