<?xml version="1.0" encoding="utf-8"?>
<!-- Generator: Adobe Illustrator 21.0.1, SVG Export Plug-In . SVG Version: 6.00 Build 0)  -->
<svg version="1.1" xmlns="http://www.w3.org/2000/svg" xmlns:xlink="http://www.w3.org/1999/xlink" x="0px" y="0px"
	 viewBox="0 0 348.7 104" style="enable-background:new 0 0 348.7 104;" xml:space="preserve">
<style type="text/css">
	.st0{fill:#956A42;stroke:#000000;stroke-miterlimit:10;}
	.st1{display:none;}
	.st2{display:inline;fill:#476681;stroke:#000000;stroke-miterlimit:10;}
	.st3{display:inline;}
	.st4{fill:none;stroke:#000000;stroke-miterlimit:10;}
	.st5{fill:#002E20;stroke:#000000;stroke-miterlimit:10;}
	.st6{display:inline;fill:none;stroke:#000000;stroke-miterlimit:10;}
	.st7{display:inline;fill:#FBB89A;stroke:#000000;stroke-miterlimit:10;}
	.st8{fill:#6A8377;stroke:#000000;stroke-miterlimit:10;}
	.st9{fill:#C26A42;stroke:#000000;stroke-miterlimit:10;}
	.st10{fill:#FBB89A;stroke:#000000;stroke-miterlimit:10;}
	.st11{display:inline;fill:#151A16;stroke:#000000;stroke-miterlimit:10;}
	.st12{display:inline;fill:#472A3B;stroke:#000000;stroke-miterlimit:10;}
	.st13{fill:#C0C0AC;stroke:#000000;stroke-miterlimit:10;}
	.st14{fill:#A9A6A7;stroke:#000000;stroke-miterlimit:10;}
	.st15{display:inline;fill:#564338;stroke:#000000;stroke-miterlimit:10;}
	.st16{display:inline;fill:#FFFFFF;stroke:#000000;stroke-miterlimit:10;}
	.st17{fill:#E8C0A9;stroke:#000000;stroke-miterlimit:10;}
	.st18{display:inline;fill:#E8C0A9;stroke:#000000;stroke-miterlimit:10;}
	.st19{display:inline;fill:#567286;stroke:#000000;stroke-miterlimit:10;}
	.st20{display:inline;fill:#684F42;stroke:#000000;stroke-miterlimit:10;}
	.st21{display:inline;fill:#956A42;stroke:#000000;stroke-miterlimit:10;}
	.st22{display:inline;fill:#954836;stroke:#000000;stroke-miterlimit:10;}
</style>
<g id="Слой_6">
	<path class="st0" d="M148.3,6.5L298,4.1l27-0.4c0,0,6-2.7,8.5,4.6s-43,43.3-43,43.3S27.5,42,25,41.5s-19,0-19,0V30.3
		c0,0-5-2.8,2.5-5.3S61.9,8.2,61.9,8.2"/>
	<path class="st0" d="M6,41.5v52c0,0,4,5,12,0s2-52.2,2-52.2l2.2-6.8"/>
	<path class="st0" d="M61.8,43.1v25.4c0,0-2.1,6.5,4.8,5.5s4.7-8.9,4.7-8.9V45.5l0.6-2.4H61.8z"/>
	<path class="st0" d="M271.5,51.5c0,0-1.5,43,0,48S286,104,286,104l11.5-12V45.8C297.5,45.8,293.5,50.5,271.5,51.5z"/>
	<path class="st0" d="M333.5,8.2v43.3c0,0-3,10.7-8.5,7.1s-4-33.5-4-33.5S336,12.1,333.5,8.2z"/>
</g>
<g id="Слой_2" class="st1">
	<path class="st2" d="M253.3,10l6-4.3h11c0,0,15.7-23.3,1.7-27.2s-21-2.7-21-2.7l-8.8,2.7c0,0-19.8,13.2-1.3,20.2S253.3,10,253.3,10
		z"/>
	<g id="Слой_5" class="st3">
		<path class="st4" d="M239.1-141.1h-15c0,0-3.9,0.2-1.5,2.5c2.3,2.3,0.8,1.6,0.8,1.6"/>
		<path class="st4" d="M188.6-104.6c0,0,7.7,2.5,14.2,1.7"/>
		<path class="st4" d="M187.1-108.9"/>
		<path class="st5" d="M187.1-108.9c0,0-16.1-1.5-24.4,14.4c-8.3,15.9-10.7,47.9-7.7,71s4,40.5,4,40.5s3.5,13.3,25.7,10.7
			c0,0,28.8,7.7,46.5-3S253.3,10,253.3,10s3.3-20.7-5.7-23.7c-9-3-10.7-36.7-8.2-53.3c2.5-16.7,12.8-21,4.2-30
			c-8.7-9-55.1-11.5-55.1-11.5L187.1-108.9z"/>
	</g>
	<g id="Слой_3">
		<path class="st6" d="M228.1-140.1c0,0-2.7-0.5-3,1.5c-0.3,2-1.7,1.6-1.7,1.6l0.8-4.9l10.5-0.9l4.4-0.4v5.7h-4.8L228.1-140.1z"/>
		<path class="st7" d="M234.7-141c1,0.2,5,1.3,5.7,6.1c0.7,4.8-2.8,12.2-2.8,12.2s3,1.2,1.5,4.2s-4.3,2.5-4.3,2.5s0.8,4.2-1,5.4
			s-3.5,3.7-3.5,3.7s-7.8,2.7-8.3,2.7s-8.7,2.8-10.8,8.5c-2.2,5.7-28.8,4.5-26.2-4c2.7-8.5,2.7-6,2.7-6l2-29.1c0,0,7.5-30.4,25-25.3
			C232.1-155,234.7-141,234.7-141z"/>
	</g>
	<g id="Слой_4">
	</g>
	<path class="st8" d="M208.1-164.5c-1,0-5.3-1.5-11.3,1.5s-8.5,2.3-11.7,12.5c-3.2,10.2-1.3,34.5-1.3,34.5l2.5-10.5l1.7,15.8l3.2-12
		c0,0,0.8,14.5,0.8,13.8s3.7-12.3,3.7-12.3l2.1,13l4.3-13l4.2,14.2l1.8-7.2c0,0-0.8,6.9,0,6.4c0.8-0.5,2.8-6.4,2.8-6.4l0.8,7.2
		l3-14.2l2,12.3l2.5-9.6l2.3,7.8v-9.5l1.3,9.5l3.7-8.8l1.5,8.8l3.5-10.5v6.9l1.5-17.6c0,0-1.5,5-3.8,0.3c-2.3-4.7-1.2-16,1.8-11.8
		s2,3,2,3l0.2-8.5l1.5,6.2c0,0,4-20.8-6.8-22.2C217.1-166.3,208.1-164.5,208.1-164.5z"/>
	<path class="st8" d="M192.7-148.8l-1,9l4.3-9c0,0-0.3,21.7,0,20.5c0.3-1.2,5.5-13.3,5.5-13.3v10.2c0,0,5-12.8,4.8-11.8
		c-0.2,1,1.2,9.6,1.2,9.6l1.8-7.1l1.4,15.5l3-11v7.7l2.3-7.6"/>
	<line class="st4" x1="232.9" y1="-110" x2="234.7" y2="-108.9"/>
	<line class="st4" x1="234.9" y1="-113" x2="237.2" y2="-111.7"/>
	<line class="st4" x1="237.9" y1="-116.9" x2="239.1" y2="-115.2"/>
	<line class="st4" x1="234.9" y1="-120.5" x2="237.2" y2="-119.5"/>
	<line class="st4" x1="237.2" y1="-126.5" x2="240.5" y2="-125.3"/>
	<line class="st4" x1="239.5" y1="-120" x2="242.2" y2="-119.5"/>
	<polygon class="st9" points="332.1,-69.6 336.3,-74 336.3,-68.8 340,-71.4 344.5,-68.8 344.5,-65.5 348,-65.5 348,-60.5 
		339.3,-49.8 325,-55 	"/>
	<polyline class="st5" points="243.7,-97 280,-63 319.7,-58.2 321,-48.2 278.3,-48.2 232.9,-68 	"/>
	<path class="st10" d="M318.3-57.9c0,0,2.3-3.5,6.4-6.5s4.1-4.4,4.1-4.4s0.4-5.5,2.1-3.8c1.8,1.7,1,5.6,1,5.6s-3.8,5.6-3.8,6.5
		s0.8,3.8,5.9,4.4s16.4-6.8,20.9-6.1s0,3.1,0,3.1l-3.4,2.4c0,0,3,2.6-0.1,4s0.9,3.9-3.1,4s-1.6,1-4.3,2.6s-10.5,4.8-13.8,3
		s-11.1-5-11.1-5L318.3-57.9z"/>
	<path class="st11" d="M188.6,58.6v15.5c0,0,13,9.9,26.7-1.4l4.4-7.6C219.7,65.1,225.8,49.5,188.6,58.6z"/>
	<path class="st11" d="M243,58.6c-6.7-1.6-5,16.3-5,16.3s5.3,9.5,26.3,2.8c0,0,4.3,0.5,4-10.8C268,55.7,243,58.6,243,58.6z"/>
	<path class="st2" d="M188.6,47.8l-3.9,21.4c0,0-2.7,3.8,10.9,0c13.7-3.8,0-2.3,0-2.3s10.2,4.8,16.9,4c6.7-0.9,5.1-8.5,5.1-8.5
		l0.2-13.5L188.6,47.8z"/>
	<path class="st2" d="M237.8,49.6L234.7,71c0,0,2.5,5.2,11.6,3.1c9.1-2.1,16.8,0.8,16.8,0.8s8,0.1,6.7-3.9c-1.3-4.1-4-19.2-4-19.2
		L237.8,49.6z"/>
</g>
<g id="Слой_8" class="st1">
	<path class="st12" d="M408,80.1c0,0-99-81.3-100.5-91.9s4.7-16.4,10.8-13c6.2,3.3,9,9.7,9,9.7s-5.3,4.3-6.3,1.4s-3.5-7.8-6.5-4.8
		s-2,7.2,0,9.1S411,74.9,411,74.9L408,80.1z"/>
</g>
<g id="Слой_1" class="st1">
	<path class="st13" d="M90-119c0,0-14-3-14,13s14,13.5,14,13.5s14-2,14-10.5S90-119,90-119z"/>
	<path class="st8" d="M67.9-3.5c0,0-6.9,8.8-6.1,14.8c0,0-1.2,9.5,6.1,12.8s17,0.5,30.3,4.8s25.3,3.3,33.5,0s16.5-22.3,16.5-22.3
		l3.5-0.5c0,0,6.3-17.1-3.8-19.7s-24.1-0.9-24.1-0.9L67.9-3.5z"/>
	<path class="st14" d="M105.5-149.3c0,0-23-3.2-27.2,13.5c-4.2,16.7,0.7,19.9,0.7,19.9s0.2-2,4.1-2.6c3.9-0.7,4-2.5,7.9,0.2
		c4,2.7,9.7,7.9,10.2,8.5c0.4,0.6,2.7,6.8,2.7,6.8s3,4.2,9.7-1c6.7-5.2,17.8-25.5,8.2-38.8C112.2-156.2,105.5-149.3,105.5-149.3z"/>
	<path class="st14" d="M87.7-138.5c0,0-7,7.9-3.8,19.3"/>
	<path class="st14" d="M98.7-135.8c0,0-6,5.3-8.7,16.8"/>
	<path class="st14" d="M110.5-131.2c0,0,0.3,13.3-11.8,18.5"/>
	<path class="st14" d="M101.7-108.9c0,0,5.6,1.5,10.6-2.1"/>
	<path class="st13" d="M83-113.7c0,0,13.8,9.7,8,21"/>
	<path class="st13" d="M85.3-115.2c0,0,17.8,2.5,11.6,20.6"/>
	<path class="st15" d="M86.1-92.5c-2.8,1.1-7.5,4.1-9.1,5.3c-0.5,0.4-1,0.8-1.4,1.1c-6.2,5.1-13.1,12.7-13.6,21.6
		c-1.2,19.3,5.2,42.7,5.9,45.5c0.1,0.2,0.1,0.4,0.1,0.6c0,1.8-0.1,11.7-1,13.7c-1,2.2,34.9,16.2,50.4,2.1c0.1-0.1,0.1-0.1,0.2-0.2
		l7.2-7.7c0.6-0.7,0.7-1.7,0.2-2.5l-2.6-4c-0.6-0.9-0.4-2.2,0.6-2.8c1-0.7,1.8-1.6,0.8-2.6c-1.4-1.2-0.4-2.1,0.3-2.6
		c0.5-0.3,0.8-0.8,0.9-1.4c0.2-1.2,0.2-2.9-0.9-2.7c-1.8,0.3,2-2.5,1.9-3.5c-0.1-1-0.9-4.3-2.4-6.5c-1.1-1.7,0.8-1.5,1.8-1.4
		c0.4,0.1,0.8,0,1.2-0.2c2.1-1,8.9-4.8,6.8-10.5c-2.5-6.8-7.2-11-9.5-17.5s-1.1-15.3-6.8-18.5l-4.6-2.6c-0.6-0.4-1.5-0.4-2.1,0
		c-2.4,1.4-8.2,4.8-10.5,5.4c-3,0.8-7.2,1.9-7.2,0.9s-1.4-2.3-1-4.7c0.1-0.7,0.3-1.4,0.4-2c0.3-1.3-0.7-2.5-2-2.5
		c-0.9,0-1.8,0-2.1,0.2c-0.1,0-0.2,0.1-0.2,0.1C86.5-92.1,86.2-92.6,86.1-92.5"/>
	<path class="st16" d="M76-106"/>
	<path class="st17" d="M125.6-130.1c0,0,0.4,9.2,3.3,10.9c2.9,1.7-1.6,9.5-1.6,9.5s1.6,6.4-0.7,7.4s-3.1,0-3.1,0s-1.3,3-3.4,1.8
		c-2.1-1.3-8.9,10.4-8.9,10.4s-25,16.9-18.7-2.1c0,0,10.1-2.4,12.2-10.1c0,0,1.8,1.3,7.7-0.7C118.3-105.3,125.7-127.1,125.6-130.1z"
		/>
	<path class="st15" d="M66.6-76.6c0,0-19.1,26.3-16.4,37.1c0,0-2.2,2.3-0.3,4.7c1.9,2.3,4.8,1.3,4.8,1.3s4.4,0.8,7.1,0.2
		c2.7-0.6,2.7-0.6,2.7-0.6S57.7-64.4,66.6-76.6z"/>
	<path class="st15" d="M71.8-13.7c0,0,0.6,6.3-1.2,8.5"/>
	<path class="st15" d="M75.2-11.8c0,0-0.2,3.2-2,6.7"/>
	<path class="st15" d="M79.5-10.7c0,0,1,4.3-2.2,7.2"/>
	<path class="st15" d="M83-9.4c0,0,0.3,3.6-0.8,6.8"/>
	<path class="st15" d="M87.7-8.5c0,0,1.3,5.2-2.4,7.2"/>
	<path class="st15" d="M93.7-8.5c0,0,2.2,4.7,0,7.2"/>
	<path class="st15" d="M123.9-29.2c0,0-14.8-0.8-16.9-5.2"/>
	<path class="st15" d="M123-23.5c0,0-6-1.5-9.3-1.3"/>
	<path class="st15" d="M77.3-48.2c0,0,7.2,12.7,3.3,26.7"/>
	<path class="st15" d="M119.2-84.7c0,0,20.7,11.2,35,34.2c0,0,20.8,0.7,35.9,9h7.6v9.8l-8.8-0.8c0,0-33.5,1.6-38.7-2.7
		c-5.2-4.3-28.9-5.2-37.8-23.7"/>
	<path class="st18" d="M197.5-41.6l4-0.9c0,0,4.3-2.1,5.9-5.2c0,0,1.8-1.3,4.7-3c3-1.6,3.1-2.8,3-1.6s0,1.9,0,1.9s0.8,0.9,0,1.6
		s-6.1,4-5.1,4.4c1,0.4,1.8,2.4,6.5,1.2c4.7-1.2,12.8-2.8,12.8-2.8s2.5,0.7-1.6,2.5s-9,2.7-9,2.7s-1.2,1.6-0.3,1.6
		c0.9,0,14.9,0,14.9,0s3,1.2,0,2.7c-3,1.5-15.4,0.1-14.6,1.2c0.7,1-2.5,1.5-0.6,2.3s12.7,1.5,12.7,1.5s2.5,1.9-1.2,2.4
		c-3.7,0.4-12.4-1.6-12.4-1.6s-1.8,1.2-0.4,1.7s9.7,2.7,9.7,2.7s1.9,3.8-1.9,2.4c-3.8-1.5-10.8-4.1-10.8-4.1s-13,0-16.4-4.9
		C194.1-37.9,197.5-41.6,197.5-41.6z"/>
	<path class="st19" d="M93.7,51.5c0,0-4.9-2.2-6,5.2s0,17.4,0,17.4s11.7,12.2,20-2.1c0,0,17.6-3.3,12.3-17l-6.3-4.5l-12.5,4.9
		L93.7,51.5z"/>
	<path class="st20" d="M93.7,44.3l0.5,11.1c0,0,3.1,3,7,0c3.9-3,2.9-10.7,2.9-10.7L93.7,44.3z"/>
	<path class="st20" d="M125.6,45.8c0,0-1.5,14.2-1.7,10.8c0,0,3.9,7.5,9.7,1.9l1.7-12.8H125.6z"/>
	<path class="st19" d="M123.9,53.2c0,0-4.2-3.9-5.6,5.3c-1.4,9.2,0,15.5,0,15.5s16.3,8.1,21.3,0s3.7-17.4,3.7-17.4s-5.9-8.2-9.8-3.4
		S123.9,53.2,123.9,53.2z"/>
</g>
<g id="Слой_7" class="st1">
	<path class="st21" d="M297.5,43.1c0,0-10-99.2-22.5-119.6s-27.4-24.9-28.7-17.9c-1.3,7,14.9,13.9,14.9,13.9S280-54,289,33.8"/>
	<path class="st21" d="M14.1,31.6c0,0,2.4-58.6-20.6-99.1S-25-103.2-25-103.2S27-78.9,19,31.6"/>
	<polygon class="st20" points="-16.5,-76.6 -11.5,-58.2 287,-67.4 282.5,-84.7 	"/>
	<path class="st22" d="M297.5-11.8c-3.5-0.7-296-3.3-296-3.3L6-3.5L297.5,8.2V-11.8z"/>
</g>
</svg>
